<?xml version="1.0" encoding="UTF-8"?><svg id="Layer_1" xmlns="http://www.w3.org/2000/svg" xmlns:xlink="http://www.w3.org/1999/xlink" viewBox="0 0 1053.81 896.03"><defs><style>.cls-1{letter-spacing:0em;}.cls-2{clip-path:url(#clippath);}.cls-3{fill:none;}.cls-3,.cls-4,.cls-5,.cls-6,.cls-7{stroke-width:0px;}.cls-8{font-family:FenwayParkJF, FenwayParkJF;font-size:129.62px;}.cls-8,.cls-7{fill:#fef1de;}.cls-9{letter-spacing:-.02em;}.cls-4{fill:#f2f5f6;}.cls-5{fill:#1f514a;}.cls-6{fill:#dc613a;}</style><clipPath id="clippath"><path class="cls-3" d="m63.32,461.88c0-48.66.19-97.33-.07-145.99-.14-26.5-1.55-52.99-1.39-79.48.08-13.34,1.76-26.75,3.79-39.96,2.37-15.5,12.03-23.31,27.76-23.55,23.82-.36,47.64-.44,71.46-.72,13.63-.16,17.27-3.34,19.21-16.57.83-5.63,1.54-11.28,2.29-16.92,1.82-13.68,8.7-19.69,22.83-20.25,9-.36,18.19-.09,26.87-2.01,3.49-.77,7.66-6.3,8.38-10.24,1.68-9.16,2.18-18.69,1.84-28.02-.71-19.96,11.87-23.29,26.04-19.4,14.53,3.99,29.09,7.92,43.4,12.61,41.02,13.44,81.82,27.53,122.95,40.62,6.13,1.95,14.03,1.41,20.28-.58,32.22-10.25,64.08-21.65,96.26-32.04,22.62-7.3,45.4-14.18,68.39-20.2,22.17-5.81,32.66,2.94,32.67,25.66,0,2.35-.03,4.7,0,7.05.19,20.12,3.21,23.08,23.48,23.03.34,0,.67-.02,1.01,0,36.63,2.05,34.84,4.76,34.12,33.14-.66,26.01-.07,26.2,25.72,26.28,21.79.06,43.58-.35,65.37-.57,15.4-.15,24.99,6.59,25.64,22.03,1.5,35.48,1.83,71.04,1.74,106.56-.13,47.63-1.5,95.26-1.57,142.88-.05,31.86,1.66,63.73,1.74,95.6.06,23.8-1.57,47.6-1.8,71.41-.28,27.81.53,55.64.12,83.44-.26,17.61-8.35,26.14-26.08,26.29-22.06.19-44.14-1.86-66.22-2.07-26.54-.25-29.25,3.3-27.25,30.06.39,5.25-.09,10.76-1.3,15.89-1.9,8.07-7.44,12.49-15.98,12.51-7.72.02-15.44.09-23.15-.12-17.49-.48-19.14,1.23-19.36,18.39-.1,8.35-.7,16.75-1.89,25.01-1.9,13.17-8.95,18.62-22.1,17.56-3.95-.32-7.91-1.38-11.7-2.62-37.83-12.41-75.69-24.78-113.41-37.52-12.36-4.17-24.39-9.33-36.51-14.19-12.67-5.07-25.14-5.15-38.21-.75-51.41,17.34-103.19,33.62-154.36,51.65-16.4,5.78-29.83-2.53-30.48-18.76-.29-7.35-.1-14.72-.22-22.08-.18-11.5-2.98-14.14-14.38-14.25-7.71-.08-15.44-.17-23.11-.82-12.96-1.1-19.25-7.61-20.26-20.54-.57-7.35-.73-14.73-1.24-22.08-.64-9.32-5.73-13.81-15.1-13.73-21.74.19-43.48.01-65.22.44-37.04.73-44.52-7.49-43.62-44.71,1.74-72.45,2.63-144.92,3.87-217.38l-1.25-.02Z"/></clipPath></defs><g class="cls-2"><rect class="cls-5" width="1053.81" height="896.03"/></g><path class="cls-7" d="m108.74,633.64c-1.44,3.39-4.11,6.64-3.38,8.67,1,2.79,4.36,6.24,7.09,6.61,5.57.75,11.39-.38,18.38-.81-3.37-6.8-3.74-11.44,2.61-14.52-2.57,5.05-.54,7.16,4.22,6.37,3.4-.56,6.82-1.79,9.89-3.37,13.75-7.05,26.93-8.38,40.2,1.59,4.56,3.43,10.48,5.04,17.03,8.06-12.08,1.12-23.2-11.84-33.66,1.05-.4-.38-.8-.76-1.2-1.15,1.49-3.53,2.98-7.07,4.65-11.02-6.56-2.71-13.28-1.54-19.63,1.62-7.07,3.52-13.9,7.53-20.77,11.46-10.61,6.07-21.72,5.07-32.56,1.5-2.73-.9-5.66-5.21-5.92-8.18-.18-2.04,3.79-4.96,6.46-6.58,2.02-1.23,4.9-1.02,6.59-1.31Z"/><path class="cls-7" d="m785.13,640.23c1.44,3.39,4.11,6.64,3.38,8.67-1,2.79-4.36,6.24-7.09,6.61-5.57.75-11.39-.38-18.38-.81,3.37-6.8,3.74-11.44-2.61-14.52,2.57,5.05.54,7.16-4.22,6.37-3.4-.56-6.82-1.79-9.89-3.37-13.75-7.05-26.93-8.38-40.2,1.59-4.56,3.43-10.48,5.04-17.03,8.06,12.08,1.12,23.2-11.84,33.66,1.05.4-.38.8-.76,1.2-1.15-1.49-3.53-2.98-7.07-4.65-11.02,6.56-2.71,13.28-1.54,19.63,1.62,7.07,3.52,13.9,7.53,20.77,11.46,10.61,6.07,21.72,5.07,32.56,1.5,2.73-.9,5.66-5.21,5.92-8.18.18-2.04-3.79-4.96-6.46-6.58-2.02-1.23-4.9-1.02-6.59-1.31Z"/><path class="cls-7" d="m286.06,170.97c-2.45,12.27,6.15,14.18,14.42,16.07,14.98,3.41,25.93-6.05,38.93-12.05-5.64-7-18.38-9.36-14.37-20.51,1.7-4.72,8.47-7.61,14.26-10.22-5.81,7.13-5.57,14.06-.8,20.34,5.34,7.03,13.01,5.88,21.05,5.14,18.5-1.7,37.11-2.32,55.69-2.82,3.7-.1,7.47,2.3,11.1,4.07-35.84-8.22-68.55,1.42-100.9,15.74-11.05,4.89-23.39,7.44-35.42,9.37-6.87,1.1-14.32-3.11-14.46-10.77-.09-5.06,4.74-10.2,7.37-15.31,1.04.32,2.07.64,3.11.96Z"/><path class="cls-7" d="m493.15,169.27c18.36-6.12,36.83-4.52,55.3-1.25,3.94.7,8.08,3.3,11.61,2.56,5.78-1.22,13.22-3.04,16.06-7.25,2.76-4.08.6-11.48.6-19.55,4.05,3.32,9.71,6.21,12.65,10.82,3.3,5.18-.28,9.47-14.44,20.35,13.69,6.6,25.39,17.06,41.95,11.79,7.32-2.33,13.91-5.24,11.77-15.37,7.14,3.11,12.61,8.08,9.52,14.75-2.16,4.64-9.2,10.05-13.85,9.87-10.4-.41-21.54-2.3-30.84-6.78-31.9-15.36-64.55-24.92-100.32-19.93Z"/><text class="cls-8" transform="translate(181.36 295.72)"><tspan class="cls-9" x="0" y="0">C</tspan><tspan class="cls-1" x="71.55" y="0">ool Beans</tspan></text><path class="cls-6" d="m227.1,668.87l-1.35-8.78h-8.91l-1.28,8.78c-.13.83-.64,1.28-1.41,1.28h-2.69c-.9,0-1.35-.71-1.22-1.6l6.66-43.38c.13-.96.64-1.41,1.54-1.41h5.77c.9,0,1.35.45,1.47,1.41l6.66,43.38c.13.96-.32,1.6-1.22,1.6h-2.69c-.71,0-1.28-.45-1.35-1.28Zm-9.67-13.26h7.69l-2.18-14.93-1.47-12.43h-.32l-1.47,12.43-2.24,14.93Z"/><path class="cls-6" d="m240.56,668.74c0,.9-.51,1.41-1.41,1.41h-2.11c-.9,0-1.41-.51-1.41-1.41v-48.5c0-.9.51-1.35,1.41-1.35h2.11c.9,0,1.41.45,1.41,1.35v48.5Z"/><path class="cls-6" d="m250.62,668.74c0,.9-.51,1.41-1.41,1.41h-2.11c-.9,0-1.41-.51-1.41-1.41v-48.5c0-.9.51-1.35,1.41-1.35h2.11c.9,0,1.41.45,1.41,1.35v48.5Z"/><path class="cls-6" d="m304.05,668.8c0,.83-.51,1.35-1.41,1.35h-2.11c-.9,0-1.41-.51-1.41-1.35v-26.78c0-2.69-.71-3.59-2.88-3.59s-3.33,1.15-3.33,3.84v26.53c0,.83-.45,1.35-1.35,1.35h-2.18c-.9,0-1.35-.51-1.35-1.35v-40.56h-8.39v40.49c0,.9-.51,1.41-1.41,1.41h-2.56c-.9,0-1.41-.51-1.41-1.41v-40.49h-7.3c-.9,0-1.41-.51-1.41-1.41v-1.73c0-.9.51-1.35,1.41-1.35h21.08v-3.52c0-.9.45-1.35,1.35-1.35h2.18c.9,0,1.35.45,1.35,1.35v16.47c1.67-1.6,3.91-2.5,5.9-2.5,2.82,0,5.25,1.79,5.25,5.89v28.7Z"/><path class="cls-6" d="m311.61,623.51c1.86,0,3.14,1.28,3.14,3.14s-1.28,3.08-3.14,3.08-3.08-1.28-3.08-3.08,1.28-3.14,3.08-3.14Zm2.5,45.23c0,.9-.51,1.41-1.41,1.41h-2.11c-.9,0-1.41-.51-1.41-1.41v-32.87c0-.9.51-1.35,1.41-1.35h2.11c.9,0,1.41.45,1.41,1.35v32.87Z"/><path class="cls-6" d="m335.25,668.8c0,.83-.45,1.35-1.35,1.35h-2.18c-.9,0-1.35-.51-1.35-1.35v-26.78c0-2.69-.77-3.59-2.88-3.59s-3.33,1.15-3.33,3.84v26.53c0,.83-.51,1.35-1.41,1.35h-2.11c-.9,0-1.41-.51-1.41-1.35v-32.93c0-.9.51-1.35,1.41-1.35h2.11c.9,0,1.41.45,1.41,1.35v.83c1.6-1.6,3.84-2.5,5.83-2.5,2.82,0,5.25,1.79,5.25,5.89v28.7Z"/><path class="cls-6" d="m356.39,674.7c0,5.32-1.92,8.27-8.65,8.27h-3.14c-.9,0-1.41-.45-1.41-1.35v-1.35c0-.9.51-1.41,1.41-1.41h3.14c3.01,0,3.78-1.54,3.78-4.23v-6.66c-1.67,1.6-3.91,2.5-5.89,2.5-2.82,0-5.25-1.79-5.25-5.89v-24.48c0-4.1,2.43-5.89,5.25-5.89,1.99,0,4.23.9,5.89,2.5v-.83c0-.9.45-1.35,1.35-1.35h2.18c.9,0,1.35.45,1.35,1.35v38.83Zm-11.08-12.11c0,2.75.7,3.59,2.82,3.59s3.4-1.09,3.4-3.78v-20.12c0-2.69-1.22-3.84-3.4-3.84s-2.82.9-2.82,3.59v20.57Z"/><path class="cls-6" d="m369.4,670.47c-6.22,0-8.01-2.69-8.01-7.62v-4.1c0-.9.45-1.41,1.35-1.41h2.18c.9,0,1.35.51,1.35,1.41v4.04c0,2.69.96,3.59,3.14,3.59s3.08-.9,3.08-3.59c0-3.97-.51-4.29-2.82-6.6l-4.87-4.74c-2.31-2.24-3.4-4.17-3.4-9.61,0-4.93,1.79-7.62,8.01-7.62s8.01,2.69,8.01,7.62v4.1c0,.9-.51,1.35-1.41,1.35h-2.11c-.9,0-1.41-.45-1.41-1.35v-4.04c0-2.76-.96-3.59-3.08-3.59s-3.14.83-3.14,3.59c0,3.97.51,4.23,2.82,6.6l4.87,4.74c2.31,2.24,3.46,4.17,3.46,9.61,0,4.93-1.86,7.62-8.01,7.62Z"/><path class="cls-6" d="m414.44,640.36c0,.9-.51,1.41-1.41,1.41h-2.56c-.9,0-1.41-.51-1.41-1.41v-7.5c0-3.08-.83-4.93-4.49-4.93s-4.48,1.86-4.48,4.93v28.19c0,3.08.83,4.93,4.48,4.93s4.49-1.86,4.49-4.93v-7.56c0-.9.51-1.35,1.41-1.35h2.56c.9,0,1.41.45,1.41,1.35v7.56c0,6.09-2.18,9.42-9.87,9.42s-9.87-3.33-9.87-9.42v-28.19c0-6.09,2.18-9.42,9.87-9.42s9.87,3.33,9.87,9.42v7.5Z"/><path class="cls-6" d="m435.58,641.83v21.02c0,4.93-1.79,7.62-8.01,7.62s-8.01-2.69-8.01-7.62v-21.02c0-4.93,1.79-7.62,8.01-7.62s8.01,2.69,8.01,7.62Zm-11.08.06v20.89c0,2.69.96,3.59,3.08,3.59s3.14-.9,3.14-3.59v-20.89c0-2.76-.96-3.59-3.14-3.59s-3.08.83-3.08,3.59Z"/><path class="cls-6" d="m447.56,638.63v30.11c0,.9-.51,1.41-1.41,1.41h-2.11c-.9,0-1.41-.51-1.41-1.41v-30.11h-2.75c-.9,0-1.41-.51-1.41-1.41v-1.35c0-.9.51-1.35,1.41-1.35h2.75v-3.91c0-5.38,1.92-8.33,8.71-8.33h4.74c1.15-2.24,3.33-3.4,7.62-3.4h1.6c.9,0,1.35.45,1.35,1.35v1.35c0,.9-.45,1.41-1.35,1.41h-1.6c-3.08,0-3.78,1.54-3.78,4.23v7.3h4.1c.9,0,1.35.45,1.35,1.35v1.35c0,.9-.45,1.41-1.35,1.41h-4.1v30.11c0,.9-.45,1.41-1.35,1.41h-2.18c-.9,0-1.35-.51-1.35-1.41v-30.11h-7.5Zm7.5-4.1v-8.14h-3.72c-3.08,0-3.78,1.54-3.78,4.29v3.84h7.5Z"/><path class="cls-6" d="m484.91,652.85c0,.96-.51,1.47-1.47,1.47h-9.61v8.46c0,2.69.96,3.59,3.08,3.59s3.14-.9,3.14-3.59v-2.31c0-.9.45-1.35,1.35-1.35h2.18c.9,0,1.35.45,1.35,1.35v2.37c0,4.93-1.79,7.62-8.01,7.62s-8.01-2.69-8.01-7.62v-21.02c0-4.93,1.79-7.62,8.01-7.62s8.01,2.69,8.01,7.62v11.02Zm-11.08-2.56h6.21v-8.39c0-2.76-.96-3.59-3.14-3.59s-3.08.83-3.08,3.59v8.39Z"/><path class="cls-6" d="m506.06,652.85c0,.96-.51,1.47-1.47,1.47h-9.61v8.46c0,2.69.96,3.59,3.08,3.59s3.14-.9,3.14-3.59v-2.31c0-.9.45-1.35,1.35-1.35h2.18c.9,0,1.35.45,1.35,1.35v2.37c0,4.93-1.79,7.62-8.01,7.62s-8.01-2.69-8.01-7.62v-21.02c0-4.93,1.79-7.62,8.01-7.62s8.01,2.69,8.01,7.62v11.02Zm-11.08-2.56h6.21v-8.39c0-2.76-.96-3.59-3.14-3.59s-3.08.83-3.08,3.59v8.39Z"/><path class="cls-6" d="m543.28,640.36c0,.9-.51,1.41-1.41,1.41h-2.56c-.9,0-1.41-.51-1.41-1.41v-7.5c0-3.08-.83-4.93-4.49-4.93s-4.48,1.86-4.48,4.93v28.19c0,3.08.83,4.93,4.48,4.93s4.49-1.86,4.49-4.93v-7.56c0-.9.51-1.35,1.41-1.35h2.56c.9,0,1.41.45,1.41,1.35v7.56c0,6.09-2.18,9.42-9.87,9.42s-9.87-3.33-9.87-9.42v-28.19c0-6.09,2.18-9.42,9.87-9.42s9.87,3.33,9.87,9.42v7.5Z"/><path class="cls-6" d="m564.42,641.83v21.02c0,4.93-1.79,7.62-8.01,7.62s-8.01-2.69-8.01-7.62v-21.02c0-4.93,1.79-7.62,8.01-7.62s8.01,2.69,8.01,7.62Zm-11.08.06v20.89c0,2.69.96,3.59,3.08,3.59s3.14-.9,3.14-3.59v-20.89c0-2.76-.96-3.59-3.14-3.59s-3.08.83-3.08,3.59Z"/><path class="cls-6" d="m584.86,636.9c1.79-1.73,3.97-2.69,6.6-2.69,2.82,0,5.25,1.79,5.25,5.89v28.7c0,.83-.51,1.35-1.41,1.35h-2.11c-.9,0-1.41-.51-1.41-1.35v-26.78c0-2.69-.71-3.59-2.88-3.59-2.05,0-3.33,1.02-3.33,3.84v26.53c0,.83-.45,1.35-1.35,1.35h-2.18c-.9,0-1.35-.51-1.35-1.35v-26.78c0-2.69-.77-3.59-2.88-3.59s-3.33,1.15-3.33,3.84v26.53c0,.83-.51,1.35-1.41,1.35h-2.11c-.9,0-1.41-.51-1.41-1.35v-32.93c0-.9.51-1.35,1.41-1.35h2.11c.9,0,1.41.45,1.41,1.35v.83c1.6-1.6,3.84-2.5,5.83-2.5s3.65.83,4.55,2.69Z"/><path class="cls-6" d="m601.84,635.87c0-.9.51-1.35,1.41-1.35h2.11c.9,0,1.41.45,1.41,1.35v.83c1.6-1.6,3.84-2.5,5.83-2.5,2.82,0,5.25,1.79,5.25,5.89v24.48c0,4.1-2.43,5.89-5.25,5.89-1.99,0-4.23-.9-5.83-2.5v13.65c0,.9-.51,1.35-1.41,1.35h-2.11c-.9,0-1.41-.45-1.41-1.35v-45.75Zm11.15,6.15c0-2.69-.77-3.59-2.88-3.59s-3.33,1.15-3.33,3.84v20.12c0,2.69,1.15,3.78,3.33,3.78s2.88-.83,2.88-3.59v-20.57Z"/><path class="cls-6" d="m634.13,650.16v-8.27c0-2.76-.96-3.59-3.14-3.59s-3.08.83-3.08,3.59v2.75c0,.9-.51,1.35-1.41,1.35h-2.11c-.9,0-1.41-.45-1.41-1.35v-2.82c0-4.93,1.79-7.62,8.01-7.62s7.94,2.69,8.01,7.62v26.97c0,.83-.45,1.35-1.35,1.35h-2.18c-.9,0-1.35-.51-1.35-1.35v-.83c-1.67,1.6-3.91,2.5-5.89,2.5-2.82,0-5.25-1.79-5.25-5.89v-6.79c0-4.93,1.79-7.62,8.01-7.62h3.14Zm-3.14,4.04c-2.12,0-3.08.9-3.08,3.59v4.81c0,2.75.71,3.59,2.82,3.59s3.4-1.09,3.4-3.78v-8.2h-3.14Z"/><path class="cls-6" d="m660.14,668.8c0,.83-.45,1.35-1.35,1.35h-2.18c-.9,0-1.35-.51-1.35-1.35v-26.78c0-2.69-.77-3.59-2.88-3.59s-3.33,1.15-3.33,3.84v26.53c0,.83-.51,1.35-1.41,1.35h-2.11c-.9,0-1.41-.51-1.41-1.35v-32.93c0-.9.51-1.35,1.41-1.35h2.11c.9,0,1.41.45,1.41,1.35v.83c1.6-1.6,3.84-2.5,5.83-2.5,2.82,0,5.25,1.79,5.25,5.89v28.7Z"/><path class="cls-6" d="m667.96,635.87l2.56,18,1.22,11.21h.32l1.22-11.21,2.5-18c.13-.96.58-1.35,1.6-1.35h2.05c.9,0,1.47.51,1.28,1.67l-6.92,45.43c-.13.9-.51,1.35-1.54,1.35h-2.05c-.9,0-1.47-.51-1.28-1.67l1.86-11.15h-1.09c-.96,0-1.41-.45-1.6-1.35l-5-32.61c-.19-1.15.45-1.67,1.28-1.67h2.05c1.03,0,1.41.38,1.54,1.35Z"/><path class="cls-5" d="m625.39,497.62c2.3,9.96-1.62,21.1-10.13,26.36-10.14,6.26-20.01,13.23-32.44,14.73-5.05.61-13.93,11.96-14.88,17.44-.56,3.21,1.96,2.12,3.15,2.49,15.58,4.85,31.62,4.14,47.6,3.56,7.31-.26,14.6-1.35,21.88-2.19,9.13-1.06,15.08,2.19,17.77,10.6,1.33,4.16-1.9,5.74-5.37,6.84-2.56.82-5.31-1.08-8.78,1.06,5.69,1.47,6.07,6.67,9.19,9.81,3.34,3.36-.3,10.44-5.55,11.5-1.84.37-3.79.56-5.66.4-26-2.15-51.65,1.7-77.41,4.2-12.15,1.18-24.33,2.06-36.47,3.43-12.42,1.39-24.97,1.73-36.94-2.29-11.43-3.84-22.62-.78-33.88-.24-23.5,1.13-45.31-3.37-63.97-18.5-14.27-11.57-24.8-26.14-32.54-42.75-3.46-7.42-6.76-14.93-10.22-22.6-7.76,5.15-15.66,9.17-19.63,18.43-3.87,9.04-12.98,11.59-21.93,12.7-6.33.79-9.37,2.33-7.8,9.77,1.46,6.93,1.14,14.3-.17,21.37-.7,3.79.43,4.85,4.06,4.86,2.01,0,4.18.73,6,1.67,2.72,1.41,6.79,3.16,5.21,6.67-1.66,3.69-3.77,8.24-9.82,7.37-10.64-1.54-21.38-1.83-32.1-.67-3.44.37-6.68-.38-9.98-.93-1.12-.18-2.15-.8-2.28-1.87-.14-1.11.89-1.73,1.86-2.26,3.23-1.74,6.81-2.06,10.3-2.79,1.23-.26,3.31.01,2.9-2.34-.32-1.84-1.24-3.01-3.41-2.88-4.62.27-9.25.53-13.87.53-2.05,0-4.81-.21-5.05-2.75-.23-2.42,2.46-2.37,4.23-2.78,3.89-.91,5.7-1.69,4.55-7.18-3.21-15.31-2.29-29.66,8.29-43.43,7.87-10.25,11.84-23.5,17.54-35.42,1.42-2.96-.68-5.25-1.64-7.66-6.65-16.61-10.02-33.48-4.46-51.13,2.3-7.31,5.1-14.34,12.07-18.62,1.76-1.08,2.18-2.14,1.06-4.08-7.1-12.28-5.47-24.91-.19-37.03,7.21-16.58,18.39-30.07,36.58-34.71,12.84-3.28,25.98-2.71,36.65,7.26,5.85,5.47,7.26,13.4,3.59,18.71-3.04,4.41-7.39,4.52-9.73-.27-2.44-5-5.89-6.42-11.15-5.86-6.56.7-13.31-1.01-19.77,1.53-.69.27-1.42.18-2.15.77-12.3,9.98-20.84,21.84-20.08,38.64.2,4.36,1.47,5.8,5.96,3.97,13.96-5.68,26.34-1.21,38.02,6.58,22.84,15.24,40.67,35.77,58.97,55.82,14.78,16.2,30.49,31.39,49.29,43.02,8.95,5.54,18.89,7.91,29.08,9.7,2.68.47,3.97-1.14,5.25-2.65,6.12-7.19,12.54-14.14,17.5-22.27,3.56-5.83,8.19-10.75,14.24-14.03,7.89-4.29,16.25-2.71,24.15-.41,5.97,1.74,11.5,5.08,17.12,7.9,4.64,2.32,9.41,2.45,14.11.85,10.24-3.5,21.22-3.22,31.53-6.33.88-.26,2.02.35,3.03.56-.33,1.65-.65,3.3-.97,4.95-9.88,1.94-19.75,3.96-29.66,5.81-11.26,2.1-22.4,3.57-32.03-5.21-2.27-2.07-5.41-3.22-8.2-4.68-3.29-1.71-6.55-1.96-10.28-.82-11.53,3.54-19.81,10.62-25,21.44-3.35,6.99-6.52,14.04-13.74,18.23-1.98,1.15-5.31.11-6.08,3.56,4.75,2.54,7.55,5.97,5.04,11.59-1.51,3.36-8.69,6.14-12.78,4.6-4.89-1.84-3.97-6.26-3.86-10.2.02-.63.06-1.28.25-1.87.76-2.3-.45-2.82-2.43-3.23-10.74-2.23-20.09-7.44-28.62-14.12-2.35-1.85-3.31-1.64-5.45.43-4.94,4.77-10.16,9.28-17.59,10.05-3.67.38-6.04-.4-7.4-4.05-3.38-9.04-6.35-17.95,1.86-26.18,1.45-1.46,2.72-2.97.32-5.19-4.31-4-8.29-8.36-12.28-12.68-1.2-1.3-2.37-1.62-3.89-1.02-4.59,1.83-8.34-.8-11.71-2.92-3.37-2.13-6.34-6.06-2.93-9.94,3.96-4.5,1.33-6.84-1.59-9.69-1.9-1.84-3.58-3.92-5.59-5.61-1.49-1.25-2.49-4.32-4.84-3.06-1.67.9-2.11,3.5-1.89,5.74.1,1.04-.03,2.11.07,3.15.47,4.89-2.5,5.91-6.54,6.28-2.91.26-4.03-2.68-6.73-2.94-5.89-.57-9.59-6.3-9.69-14.1-.08-6.18,4.58-7.24,9.07-8.72,2.59-.85,4.66,1.36,7.73.76-3.08-2.56-5.76-4.86-8.51-7.08-13.92-11.21-28.76-19.97-47.7-17.32-4.57.64-6.94-1.65-8.52-5.53-1.78-4.39-2.5-8.71-1.55-13.53,1.67-8.48,5.6-15.85,10.1-23.18-5.25,4.99-11.6,9.72-14.12,15.99-3.52,8.75-2.61,18.81-.35,28.04.93,3.78.94,6.12-1.75,8.57-2.09,1.9-1.33,3.45.31,5.27,6.32,6.98,7.03,10.65.42,16.98-9.96,9.54-11.19,19.79-5.81,31.76,1.29,2.86,2.01,5.98,3.17,8.91,2.54,6.42,3.66,13.22,2.33,19.82-1.15,5.68-2.24,11.55-4.89,16.89-.56,1.13-1.64,1.99-.54,3.87,4.5,7.7-2.79,19.77-11.76,19.85-6.36.06-7.53,1.95-4.54,7.87,1.76,3.48,2.46,6.91,2.12,10.9-.82,9.41,2.12,18.3,4.8,27.16.52,1.73,1.38,4.33,3.78,3.04,5.88-3.14,11.14-1.59,16.2,2.08.96-5.57-1.31-7.71-5.82-8.73-2.74-.62-3.75-3.22-3.08-6.06,1.61-6.87.94-13.84,1.04-20.78.18-12.44.78-13.3,13.08-16.86,2.15-.62,3.83-1.62,2.84-3.73-2.61-5.61.72-9.29,4.44-11.76,3.13-2.08,6.43-8.17,11.55-2.26.66.77,1.4-.22,1.94-.85,8.04-9.51,20.68-15.93,20.48-31.04-.02-1.68.91-5.28,4.06-4.51,2.41.59,3.28,3.44,3.09,5.72-.45,5.47-1.69,10.87-4.52,15.62-1.21,2.03-1.11,3.27.3,4.92,6.07,7.15,9.35,15.92,13.8,24.01,14.81,26.91,35.11,46.57,66.88,51.45,8.79,1.35,17.54,2.38,27.59,1.38-3.29-1.9-5.19-3.36-6.65-5.53-3.24-4.81-6.95-7.12-13.56-5.15-8.76,2.62-17.87-7.94-15.58-17.07,1.3-5.19,12.59-9.28,16.05-5.53,3.23,3.5,6.74,7.28,8.36,11.61,4.32,11.58,12.92,17.3,24.23,20,4.7,1.12,9.5,1.84,14.18,3.02,12.52,3.18,25.13,5.37,38.1,3.88,2.01-.23,4.54.61,5.85-2.16,4.91-10.32,10.92-11.51,18.98-3.48,2.03,2.02,3.69,2.61,6.46,2.34,12.15-1.19,24.28-2.42,36.34-4.37,2.84-.46,4.6-1.51,6.59-3.82,4.27-4.93,10.22-5.51,16.65-4.74,4.1.49,5.43,2.32,5.67,5.89.07.95.77,1.46,1.68,1.57,7.11.83,14.24,1.23,21.35.09,1.11-.18,2.56-.83,2.39-2.44-.15-1.39-1.32-2.33-2.51-2.5-1.62-.23-3.32.16-4.98.18-2.5.03-2.94-1.14-1.71-3.17,1.11-.54,2.23-1.07,3.34-1.61.49-.29,1.43-.74,1.39-.84-.44-1.26-1.38-1.19-2.4-.71-1.21.62-2.42,1.23-3.62,1.85-1.33-.23-3.93.5-3.62-1.27.93-5.36-2.59-3.95-5.11-3.71-13.83,1.32-27.63,2.88-41.47,4.1-3.4.3-5.62.36-6.35,4.78-.84,5.12-5.81,5.59-10.06,5.55-4.12-.04-10.07.22-10.3-4.89-.29-6.46-4.02-4.77-6.97-4.33-15.4,2.28-30.63.24-45.89-1.31-4.91-.5-9.73-1.57-13.45-4.82-4.02-3.51-6.75-3.54-9.8,1.17-3.5,5.41-9.02,2.65-13.75,2.45-4.27-.18-6.18-3.55-7.1-7.04-1.24-4.74,1.21-8.97,3.67-12.68,1.19-1.79,2.51-2.56.36-4.32-.9-.73-2.37-1.65-1.21-3,1.22-1.43,2.68-.35,4.02.24,6.14,2.75,12.2,5.62,17.93,9.22,5.15,3.23,9.93,7.03,15.61,9.48,3.9,1.68,6.6,1.55,8.43-2.58,1.82-4.1,4.99-5.95,9.47-6.04,6.95-.13,13.39,5.03,14.57,12.23.26,1.6.65,2.33,2.16,2.16,3.13-.36,6.27-.74,9.38-1.27,1.7-.29,2.55-1.74,2.4-3.25-.19-2-1.81-.99-2.93-.94-3.3.16-4.28-3.19-3.92-4.61,1.32-5.16.65-11.14,4.61-15.29,3.07-3.22,6.53-7.15,11.82-4.3,2.67,1.44,2.81-.62,3.47-1.88,3.07-5.86,7.63-10.93,7.3-18.42-.18-4.1,3.72-6.93,7.65-7.02,3.62-.08,5.96,2.88,5.85,6.76-.05,1.69.3,2.63,1.88,2.07,10.59-3.79,20.66-8.49,28.56-17.09-2.25-1.22-5.35,1.21-5.86-1.69-.38-2.2,2.7-2.38,4.29-2.55,7.97-.89,7.62-6.96,8.19-12.53.96-.04,1.92-.08,2.88-.13Zm26.94,75.68c-.05-.67-.09-1.34-.14-2.01-1.21-.25-3.44-.42-3.47-.77-.55-6.63-5.73-4.25-8.94-4.23-11.8.06-23.2,4.11-35.07,3.91-.58-.01-1.55.15-1.7.5-2.58,6.18-8.64,4.06-13.14,5.42-5.19,1.57-7.82-1.38-8.82-6.23-.4-1.95-13.85-9.5-15.57-8.67-.49.24-.81.93-1.11,1.47-2.78,5.06-5.54,10.14-8.22,15.05,32.53,3.13,63.97-6.42,96.17-4.43Zm-281.63-208.22c-.85-3.13-2.01-7.45-5.71-9.2-10.99-5.19-22.4-7.91-34.27-2.49-3.23,1.47-6.39,2.96-9.37,4.99-3.52,2.4.68,4.39-.12,6.65-.29.81.58,1.24,3.6-.58,9.33-5.63,19.51-6.42,29.84-4.68,4.65.78,10.12,1.58,11.71,7.77.23.91,2.01,2.2,2.8,2.03,1.68-.35,1.6-2.18,1.51-4.49Zm-96.07,217.47c-.99-6.96.42-13.64-2.01-20.06-2.92-7.72-.73-14.78,4.17-20.62,7.66-9.14,11.02-20.1,14.37-31.06.74-2.44,2.19-5.69.37-8.28-5.05,13.61-7.96,27.83-17.76,39.22-2.71,3.14-6.6,6.16-5.64,11.4,1.27,6.99,1.99,14,1.42,21.15-.27,3.36.65,6.65,5.08,8.26Z"/><path class="cls-6" d="m346.83,337.62c10.14-5.67,26.55-1.48,32.31,8.14,1,1.67,1.98,3.65.71,5.28-1.89,2.42-4.05.27-5.5-.75-6.42-4.48-12.19-9.94-20.5-11.1-2.26-.31-5.06.73-7.02-1.58Z"/><path class="cls-6" d="m387.31,342.53c-.31,2.8-2.25,4.47-4.53,2.48-4.34-3.81-8.08-8.32-12.01-12.6-1.46-1.59-.77-2.68,1.13-3.03,4.36-.81,15.43,8.56,15.41,13.16Z"/><path class="cls-6" d="m625.39,497.62c-.96.04-1.92.08-2.88.13-2.27.06-3.82-1.04-4.83-3,.32-1.65.64-3.3.97-4.95.42-.02.83-.04,1.24-.08,2.77-.22,5.41-4.52,8.25-.66,2.81,3.81-1.61,5.76-2.75,8.56Z"/><path class="cls-6" d="m634,478.66c3.09-.18,2.52-3.91,4.8-4.92,1.5-.67,2.91-1.88,4.47-.27,1.5,1.55.68,2.98-.33,4.42-3.14,4.51-6.68,4.78-8.83.65l-.11.11Z"/><path class="cls-6" d="m627.24,475.77c-.62,1.39.31,4.19-1.96,3.9-2.47-.31-2.12-3.2-2.35-5.2-.17-1.49,0-3.47,1.9-3.26,2.45.27,1.97,2.79,2.4,4.56Z"/><path class="cls-6" d="m634.11,478.54c-1.77.13-4.3.96-3.57-2.24.54-2.36.11-5.59,3.19-6.6,2.01-.66,1.73,1.28,1.59,2.33-.3,2.23-.86,4.42-1.32,6.63,0,0,.11-.12.11-.12Z"/><path class="cls-4" d="m617.67,494.74c1.02,1.96,2.57,3.06,4.83,3-.57,5.57-.22,11.64-8.19,12.53-1.59.18-4.67.36-4.29,2.55.51,2.91,3.61.48,5.86,1.69-7.9,8.6-17.97,13.29-28.56,17.09-1.58.57-1.93-.37-1.88-2.07.11-3.88-2.23-6.84-5.85-6.76-3.93.09-7.84,2.92-7.65,7.02.33,7.5-4.23,12.57-7.3,18.42-.66,1.26-.79,3.32-3.47,1.88-5.29-2.85-8.75,1.08-11.82,4.3-3.96,4.15-3.29,10.14-4.61,15.29-.36,1.42.62,4.77,3.92,4.61,1.12-.05,2.74-1.06,2.93.94.14,1.51-.71,2.96-2.4,3.25-3.11.53-6.24.92-9.38,1.27-1.51.17-1.9-.55-2.16-2.16-1.18-7.21-7.63-12.37-14.57-12.23-4.47.09-7.65,1.94-9.47,6.04-1.83,4.13-4.53,4.26-8.43,2.58-5.68-2.45-10.46-6.25-15.61-9.48-5.73-3.59-11.78-6.47-17.93-9.22-1.33-.59-2.8-1.67-4.02-.24-1.15,1.36.32,2.27,1.21,3,2.15,1.75.83,2.52-.36,4.32-2.46,3.71-4.91,7.93-3.67,12.68.91,3.49,2.83,6.86,7.1,7.04,4.73.2,10.25,2.96,13.75-2.45,3.05-4.71,5.78-4.68,9.8-1.17,3.73,3.26,8.54,4.32,13.45,4.82,15.26,1.55,30.49,3.59,45.89,1.31,2.95-.44,6.68-2.13,6.97,4.33.23,5.11,6.18,4.85,10.3,4.89,4.25.04,9.22-.44,10.06-5.55.73-4.43,2.95-4.48,6.35-4.78,13.84-1.22,27.64-2.78,41.47-4.1,2.52-.24,6.04-1.65,5.11,3.71-.31,1.77,2.29,1.04,3.62,1.27.43.44.86.88,1.29,1.32-1.23,2.03-.79,3.2,1.71,3.17,1.67-.02,3.37-.41,4.98-.18,1.19.17,2.36,1.11,2.51,2.5.17,1.61-1.29,2.26-2.39,2.44-7.11,1.14-14.23.75-21.35-.09-.91-.11-1.61-.61-1.68-1.57-.25-3.58-1.58-5.41-5.67-5.89-6.42-.76-12.37-.19-16.65,4.74-1.99,2.3-3.75,3.36-6.59,3.82-12.06,1.94-24.19,3.18-36.34,4.37-2.77.27-4.42-.32-6.46-2.34-8.07-8.03-14.08-6.84-18.98,3.48-1.32,2.77-3.84,1.92-5.85,2.16-12.97,1.49-25.58-.71-38.1-3.88-4.68-1.19-9.48-1.9-14.18-3.02-11.31-2.7-19.91-8.42-24.23-20-1.61-4.32-5.13-8.11-8.36-11.61-3.46-3.75-14.75.34-16.05,5.53-2.28,9.13,6.82,19.69,15.58,17.07,6.61-1.98,10.32.34,13.56,5.15,1.46,2.17,3.35,3.63,6.65,5.53-10.06,1-18.81-.03-27.59-1.38-31.77-4.88-52.07-24.53-66.88-51.45-4.45-8.09-7.73-16.86-13.8-24.01-1.41-1.66-1.5-2.89-.3-4.92,2.83-4.75,4.06-10.15,4.52-15.62.19-2.28-.69-5.13-3.09-5.72-3.15-.77-4.09,2.84-4.06,4.51.2,15.1-12.44,21.52-20.48,31.04-.53.63-1.27,1.62-1.94.85-5.11-5.9-8.42.18-11.55,2.26-3.72,2.47-7.04,6.16-4.44,11.76.98,2.11-.7,3.11-2.84,3.73-12.3,3.57-12.9,4.43-13.08,16.86-.1,6.94.57,13.91-1.04,20.78-.67,2.85.34,5.44,3.08,6.06,4.51,1.02,6.78,3.16,5.82,8.73-5.06-3.67-10.32-5.23-16.2-2.08-2.4,1.28-3.25-1.31-3.78-3.04-2.68-8.86-5.62-17.75-4.8-27.16.35-3.99-.36-7.42-2.12-10.9-2.99-5.91-1.82-7.81,4.54-7.87,8.97-.08,16.26-12.15,11.76-19.85-1.1-1.88-.02-2.74.54-3.87,2.65-5.34,3.74-11.21,4.89-16.89,1.33-6.6.21-13.4-2.33-19.82-1.16-2.93-1.88-6.05-3.17-8.91-5.38-11.97-4.14-22.23,5.81-31.76,6.6-6.32,5.9-9.99-.42-16.98-1.65-1.82-2.4-3.37-.31-5.27,2.69-2.45,2.68-4.8,1.75-8.57-2.27-9.23-3.17-19.29.35-28.04,2.52-6.27,8.87-11,14.12-15.99-4.5,7.33-8.43,14.7-10.1,23.18-.95,4.81-.24,9.14,1.55,13.53,1.58,3.89,3.94,6.18,8.52,5.53,18.94-2.66,33.77,6.11,47.7,17.32,2.75,2.21,5.43,4.51,8.51,7.08-3.06.6-5.14-1.62-7.73-.76-4.49,1.48-9.14,2.54-9.07,8.72.1,7.8,3.8,13.53,9.69,14.1,2.71.26,3.82,3.2,6.73,2.94,4.04-.36,7.01-1.39,6.54-6.28-.1-1.04.03-2.11-.07-3.15-.21-2.23.22-4.83,1.89-5.74,2.34-1.27,3.35,1.81,4.84,3.06,2.02,1.69,3.7,3.77,5.59,5.61,2.92,2.84,5.55,5.19,1.59,9.69-3.42,3.88-.44,7.82,2.93,9.94,3.36,2.13,7.12,4.76,11.71,2.92,1.52-.61,2.69-.28,3.89,1.02,3.99,4.32,7.97,8.68,12.28,12.68,2.39,2.22,1.13,3.73-.32,5.19-8.21,8.23-5.24,17.13-1.86,26.18,1.37,3.65,3.73,4.43,7.4,4.05,7.43-.76,12.65-5.28,17.59-10.05,2.14-2.06,3.1-2.27,5.45-.43,8.53,6.68,17.88,11.89,28.62,14.12,1.98.41,3.19.93,2.43,3.23-.19.59-.24,1.24-.25,1.87-.11,3.93-1.04,8.36,3.86,10.2,4.09,1.54,11.27-1.24,12.78-4.6,2.52-5.62-.29-9.05-5.04-11.59.77-3.45,4.1-2.42,6.08-3.56,7.22-4.18,10.39-11.24,13.74-18.23,5.19-10.82,13.48-17.9,25-21.44,3.73-1.15,6.99-.9,10.28.82,2.8,1.46,5.93,2.61,8.2,4.68,9.63,8.78,20.77,7.3,32.03,5.21,9.9-1.84,19.77-3.86,29.66-5.81Zm-69.17,16.35c.79-3.84-1.94-6.52-3.07-9.57-2.68-7.26-9.07-8.81-14.84-3.54-3.41,3.12-6.92,6.08-10.47,9.04-10.7,8.92-12.14,19.37-4.57,31.19,1.94,3.02,3.49,5.94,3.94,9.72.51,4.3,2.85,8.08,7.96,8.43,6.25.44,13.52-3.85,14.16-10.19,1.21-11.96,2.53-23.79,6.89-35.09Zm-159.8-12.61c-1.02-5.89-4.51-12.31-10.76-16.59-6.29-4.31-12.86-1.17-15.45,5.86-2.2,5.97-.17,10.81,1.86,16.18,3.14,8.29,6.23,10.62,14.69,9.34,6.57-1,9.71-5.24,9.66-14.79Zm-79.76-3.53c.2,1.38.57,3.01.66,4.67.18,3.21,1.52,5.96,4.54,6.8,3.1.86,6.19.28,7.81-3.36.47-1.06,1.76-1.72,2.57-2.66,4.06-4.78,3.63-10.24,1.12-15.21-1.42-2.79-3.44-6.71-7.98-5.59-5.8,1.43-7.27,6.31-8.35,11.33-.26,1.22-.24,2.49-.37,4.02Zm92.05,68.08c9.66.15,10.67-.49,10.85-6.85.21-7.11-5.32-13.11-12.24-13.3-5.19-.14-9.89,5.88-9.8,12.55.06,5,3.72,7.48,11.19,7.59Zm-70.61-140.02c-7.23.04-12.69,3.87-12.56,8.81.13,5.18,4.67,8.85,10.98,8.88,7.77.04,12.25-3.33,12.34-9.26.06-4.11-5.49-8.46-10.76-8.43Zm-24.15,33.14c.18,8.01,2.91,12.58,7.33,12.3,5.01-.31,10.18-6.17,9.86-11.16-.25-3.91-5.75-9.73-9.26-9.79-4.98-.08-8.05,3.26-7.93,8.64Zm138.18,95.74c4.26-.03,8.32-.78,8.76-6.42.26-3.41-4.19-9.14-6.94-8.41-3.99,1.05-8.87,2.67-9.17,7.33-.24,3.7,1.71,7.91,7.36,7.5Zm123.88-36.23c-.14-4.61-2.42-7.42-6.89-7.31-4.9.12-6.81,3.74-6.78,8.1.02,4.58,2.98,6.75,7.36,6.68,4.87-.08,6.23-3.37,6.31-7.47Z"/><path class="cls-4" d="m652.33,573.29c-32.21-2-63.65,7.56-96.17,4.43,2.68-4.91,5.44-9.98,8.22-15.05.3-.54.62-1.23,1.11-1.47,1.72-.83,15.17,6.71,15.57,8.67,1,4.85,3.63,7.8,8.82,6.23,4.5-1.36,10.56.76,13.14-5.42.15-.35,1.12-.51,1.7-.5,11.87.2,23.27-3.85,35.07-3.91,3.22-.02,8.39-2.4,8.94,4.23.03.35,2.26.52,3.47.77.05.67.09,1.34.14,2.01Z"/><path class="cls-4" d="m370.7,365.07c.08,2.32.17,4.14-1.51,4.49-.79.17-2.57-1.12-2.8-2.03-1.59-6.19-7.06-6.99-11.71-7.77-10.33-1.74-20.51-.95-29.84,4.68-3.02,1.82-3.89,1.4-3.6.58.8-2.26-3.4-4.25.12-6.65,2.98-2.03,6.15-3.52,9.37-4.99,11.87-5.43,23.28-2.71,34.27,2.49,3.7,1.75,4.86,6.07,5.71,9.2Z"/><path class="cls-4" d="m274.63,582.54c-4.43-1.61-5.35-4.9-5.08-8.26.57-7.15-.15-14.17-1.42-21.15-.95-5.24,2.93-8.26,5.64-11.4,9.8-11.39,12.71-25.61,17.76-39.22,1.83,2.59.38,5.84-.37,8.28-3.35,10.97-6.71,21.93-14.37,31.06-4.9,5.84-7.09,12.91-4.17,20.62,2.43,6.42,1.01,13.1,2.01,20.06Z"/><path class="cls-4" d="m643.31,584.09c-1.11.54-2.23,1.07-3.34,1.61-.43-.44-.86-.88-1.29-1.32,1.21-.62,2.42-1.23,3.62-1.85.33.52.67,1.04,1,1.55Z"/><path class="cls-4" d="m642.3,582.53c1.02-.48,1.96-.55,2.4.71.04.11-.9.55-1.39.84-.33-.52-.67-1.04-1-1.55Z"/><path class="cls-5" d="m548.51,511.09c-4.36,11.3-5.68,23.13-6.89,35.09-.64,6.34-7.91,10.62-14.16,10.19-5.11-.36-7.45-4.14-7.96-8.43-.45-3.79-2.01-6.7-3.94-9.72-7.57-11.82-6.13-22.27,4.57-31.19,3.55-2.96,7.06-5.92,10.47-9.04,5.77-5.27,12.16-3.71,14.84,3.54,1.13,3.06,3.86,5.73,3.07,9.57Z"/><path class="cls-5" d="m388.71,498.48c.06,9.55-3.08,13.8-9.66,14.79-8.46,1.28-11.55-1.05-14.69-9.34-2.03-5.37-4.06-10.21-1.86-16.18,2.59-7.03,9.16-10.17,15.45-5.86,6.25,4.28,9.74,10.7,10.76,16.59Z"/><path class="cls-5" d="m308.95,494.96c.13-1.53.11-2.81.37-4.02,1.07-5.02,2.55-9.9,8.35-11.33,4.54-1.12,6.56,2.8,7.98,5.59,2.52,4.97,2.95,10.43-1.12,15.21-.8.94-2.1,1.6-2.57,2.66-1.61,3.63-4.71,4.22-7.81,3.36-3.02-.84-4.36-3.59-4.54-6.8-.09-1.65-.46-3.29-.66-4.67Z"/><path class="cls-5" d="m401,563.04c-7.47-.11-11.13-2.6-11.19-7.59-.09-6.67,4.61-12.69,9.8-12.55,6.92.18,12.45,6.19,12.24,13.3-.18,6.36-1.19,6.99-10.85,6.85Z"/><path class="cls-5" d="m330.39,423.02c5.27-.03,10.82,4.31,10.76,8.43-.09,5.93-4.57,9.3-12.34,9.26-6.31-.03-10.85-3.7-10.98-8.88-.13-4.94,5.33-8.77,12.56-8.81Z"/><path class="cls-5" d="m306.24,456.16c-.12-5.38,2.95-8.72,7.93-8.64,3.51.06,9.01,5.87,9.26,9.79.32,4.99-4.85,10.85-9.86,11.16-4.42.28-7.15-4.29-7.33-12.3Z"/><path class="cls-5" d="m444.42,551.9c-5.65.41-7.6-3.8-7.36-7.5.3-4.65,5.19-6.27,9.17-7.33,2.75-.73,7.21,5,6.94,8.41-.44,5.64-4.5,6.39-8.76,6.42Z"/><path class="cls-5" d="m568.3,515.68c-.08,4.1-1.44,7.39-6.31,7.47-4.38.07-7.34-2.09-7.36-6.68-.02-4.37,1.88-7.98,6.78-8.1,4.47-.11,6.76,2.7,6.89,7.31Zm-6.05,4.67c2.85-.6,3.44-2.68,3.26-5.13-.08-1.09-1.56-2.72-1.61-2.42-.6,3.89-5.84.82-6.05,3.93-.15,2.23,2.22,3.21,4.4,3.61Z"/><path class="cls-4" d="m562.25,520.35c-2.18-.4-4.55-1.38-4.4-3.61.21-3.11,5.45-.04,6.05-3.93.05-.3,1.53,1.32,1.61,2.42.18,2.45-.41,4.53-3.26,5.13Z"/><path class="cls-6" d="m568.36,453.24c.36,3.24-.6,6.23-1.44,9.19-.55,1.95-.39,3.04,1.57,4.1,5.27,2.86,7.52,7.55,7.35,13.45-.03,1.23-.13,2.46-1.47,3.27-1.27.76-.82,2.47-1.75,3.66-3.89,4.97-9.12,7.45-14.99,9.09-9.74,2.73-19.47,1.93-29.25.34-4.57-.74-9.06-1.72-13.01-4.11-3.01-1.82-6.03-3.8-8.13-6.75-2.92-4.11-3.92-8.37-1.43-13.24,1.66-3.25,4.14-5.47,7.07-7.3,1.33-.83,2.08-1.58,1.39-3.21-.25-.59-.09-1.34-.14-2.02-.04-.49.06-.91.5-1.17.61-.37,1.08.09,1.35.46,1.75,2.35,4.54,2.75,7,3.66,8.65,3.17,17.49,3.24,26.5,1.71,2.87-.49,5.84-.64,8.53-1.69,4.57-1.78,9.15-3.75,10.34-9.43Z"/><path class="cls-6" d="m509.2,387.58c-.46-.56-.78-1.39-.4-1.87,1.46-1.82.48-3.36-.27-5.01-.84-1.85-1.5-3.78-2.35-5.63-1.15-2.53-.66-5.01.05-7.49.34-1.21,1.35-2.07,2.43-2.1,2.62-.07,5.15-.6,7.45,2.06,2.16,2.51,5.47,4.01,8.55,5.49,2.66,1.28,5.38,2.31,7.79,4.21,1.98,1.56,4.76,2.07,7.31,2.68,1.94.46,3.78,1.48,5.9.99.56-.13.97.35,1.12.9.29,1.07-2.5,4.86-3.62,4.93-6.92.42-13.84.82-20.77.89-.44,0-1.27-.44-1.27.61.08.48.42.37.73.3,5.95.45,11.89.18,17.81-.38,2-.19,4.31.64,6.01-1.2.3.32,1.02.09,1.01.88-.02,2.17.1,4.33.03,6.49-.02.52-.5,1.07-.87,1.54-3.64,4.69-8.6,7.62-13.74,10.34-3.98,2.1-8.35,3.26-12.44,5.1-2.55,1.15-4.99-.45-7.48-.74-.49-.06-.94-.42-1.52-.12.62.99,1.42,1.75,2.48,2.2,6.36,2.69,12.96,4.28,19.86,4.77,5.37.38,10.75.91,16.09.21,1.7-.22,3.83-.26,4.99-2.14.22-.35.58-.83,1.09-.59.65.3.41.93.19,1.37-.58,1.17-.32,2.43-1.02,3.75-1.63,3.13-4.38,3.2-7.03,3.96-1.84.53-3.59,1.34-5.43,1.87-2.7.78-5.41,1.59-8.26,1.66,0,0-.05-.06-.05-.06l.02.06c-1.1.98-2.59,1.18-3.86,1.29-4.95.41-9.63,2.26-14.62,2.47-1.56.07-3.15.77-4.81.67-.52-.03-1.23.09-1.36-.51-.56-2.62-3-3.29-4.71-4.72-2.24-1.86-4.62-3.55-5.64-6.54-.87-2.54-.44-4.84,1.09-6.8,1.66-2.12,4.11-2.55,6.7-2.01.53.11,1.01.31,1.5-.05.42-.31,1.23.17,1.37-.81.11-.8-.37-.96-.84-1.35-1.79-1.49-3.6-3.02-4.91-4.95-1.48-2.18-2.57-4.57-1.57-7.35.47-1.32,1.18-2.36,2.51-3.01,1.18-.57,2.05-1.28,1.18-2.94-.45-.86-.2-2.09,1.41-1.94.56.05,1.12-.03,1.68-.05,3.61-.08,7.23-.16,10.84-.26.46-.01,1.24.16,1.23-.57,0-.78-.77-.5-1.23-.51-3.46-.02-6.91-.02-10.37-.02Zm0,34.79c-.04-2.25-.76-4.23-2.16-5.89-.94-1.11-2.35-1.75-3.59-.86-1.21.88-1.14,2.39-.35,3.67,1.03,1.65,2.13,3.26,3.92,4.23.57.31.98,1.17,1.72.81.85-.41.28-1.35.46-1.97Zm.84-20.08c-.52-1.44-.99-3.1-1.74-4.62-.36-.74-1.09-.05-1.23.36-.64,1.92-.27,3.7,1.12,5.19.3.32.63.97,1.28.62.51-.28.6-.82.57-1.55Zm2.11-31.39c.46-.95-.08-1.67-.51-1.89-.48-.26-.94.54-1.12,1.01-.5,1.29-1.22,2.51-1.31,3.94-.05.79.46,1.45,1.04,1.51.41.04,1.07-.54,1.2-1.28.2-1.16.49-2.31.71-3.29Z"/><path class="cls-6" d="m555.62,420.8c1.25.75.96,1.67.99,2.43.08,1.88.28,3.7.93,5.51.96,2.69-.41,5.01-1.77,7.16-3.8,6-8.85,10.9-15.11,14.07-4.45,2.25-8.28,5.81-13.43,6.66-6.04.99-11.99.3-17.96-.61-2.85-.44-5.43-1.43-7.65-3.11-2.68-2.02-5.29-8.92-2.82-12.48,1.35-1.95,3.56-2.18,5.6-2.78.82-.24,2.32.24,2.37-.59.06-1.04.64-2.3-.21-3.29-.44-.51-.81-1.05-.27-1.53.52-.46.87.34,1.32.51,2.67,1.02,5.37.4,8.04.06,3.32-.42,6.58-1.17,9.97-1.38,1.86-.12,3.88-.83,5.83-1.29,5.62-1.34,11.26-2.62,16.67-4.74,1.41-.55,3.05-.41,4.52-1.16,1.44-.74,2.94-1.25,3-3.44Zm-47.93,30.32c1.98.03,3.07-1.01,2.71-2.79-.4-2.04-1.33-3.85-3.07-5.11-1.8-1.31-4.11-.68-5.02,1.34-1.19,2.64,1.98,6.51,5.37,6.57Z"/><path class="cls-6" d="m563.63,364.51c.27,5.35-4.15,6.85-7.61,8.98-1.76,1.09-3.88,1.62-5.87,2.33-.72.26-1.35.53-1.89,1.12-1.8,1.98-4.48,2.26-6.47,1.46-5.64-2.27-11.63-3.82-16.68-7.53-1.25-.92-2.78-1.74-4.27-2.34-3.23-1.3-4.19-3.88-3.91-6.93.41-4.58.16-9.21,1.1-13.75.25-1.2.69-1.29,1.89-1.18,3.23.3,6.56.43,9.58,1.43,4.54,1.51,9.23,2.31,13.82,3.56,3.12.85,6.07,2.23,9.25,2.82,1.72.32,1.23,1.83,1.08,2.46-.58,2.39,1.57,2.93,2.49,2.75,3.72-.75,5.43,1.53,7.18,3.99.11.28.21.55.32.83Zm-6.38-1.76c-.57.03-1.7.35-2.32,1.15-1.47,1.89-2,4.26-2.75,6.49-.18.53.12,1.48,1.16,1.1,2.86-1.04,5.6-2.24,6.76-5.43.68-1.87-.28-3.26-2.84-3.32Z"/><path class="cls-6" d="m518.81,322.83c1.11.15,2.2.58,3.25,1.23.98.6,2.15.99,2.88-.38.68-1.27,1.76-1.09,2.73-.77,4.17,1.38,8.23,2.94,12.14,5.08,3.26,1.79,6.59,3.69,10.34,4.61,2.72.67,5.15,2.23,7.16,4.07,1.21,1.1,2.83,1.31,3.94,2.65.82.98.85,1.45.31,2.36-1.43,2.4-3.22,4.53-5.05,6.63-.59.68-1.43,1.25-1.77,2.04-1.12,2.62-2.7,2.87-5.28,1.91-4.76-1.77-9.82-2.51-14.72-3.83-3.88-1.05-7.82-1.75-11.76-2.46-1.5-.27-2.3-1.41-3.16-2.38-3.75-4.23-6.61-9.04-6.88-14.76-.18-3.89,2.17-5.46,5.88-6Zm3.06,9.11c.2-.9-.24-1.84-.57-2.72-.4-1.07-1.22-2.03-2.48-1.98-1.1.04-2.11.43-2.54,1.76-.48,1.5-.12,2.78.5,4.11.62,1.33,1.27,2.85,2.97,2.49,1.69-.35,2.17-1.9,2.12-3.66Z"/><path class="cls-6" d="m558.37,426.29c1.28.84,2.01.16,2.91-.61,2.68-2.29,4.66-2.1,7.47,0,3.84,2.87,4.64,6.61,3.5,10.95-1.06,4.05-3.05,7.65-5.97,10.67-.92.95-.94,2-.83,3.12.45,4.54-.54,5.97-4.56,8.14-3.5,1.88-7.02,3.7-10.94,4.23-4.85.66-9.74,1.71-14.66.28-.63-.18-1.33-.13-2-.14-5.05-.08-9.71-1.41-13.88-4.51,1.2.12,2.39.26,3.59.37,3.3.31,6.2-1.16,9.07-2.34,5.15-2.11,10.25-4.54,14.43-8.24,3.85-3.4,8.14-6.52,10.31-11.51.63-1.45,1.97-2.56,2.5-4.12.73-2.15.81-4.23-.95-6.28Zm5.76,5.75c.43,1.5.3,3.57,1.84,4.34.95.48,2.73-2.86,2.41-4.7-.21-1.21-.36-2.8-2.03-2.71-1.62.09-1.91,1.61-2.23,3.06Z"/><path class="cls-6" d="m530.97,314.66c1.03-3.87,4.39-4.78,7.54-5.26,7.99-1.21,15.61.15,22.64,4.33.5.3,1.06.52,1.53.86,3.96,2.89,3.97,3.55,2.54,7.52-.79,2.21-1.01,4.65-1.76,6.95-.6,1.87-1.51,3.59-2.15,5.43-.52,1.49-1.46,1.96-2.95.94-4.33-2.96-9.18-4.92-13.93-7.05-4.34-1.94-8.64-3.98-13.14-5.54-1.77-.62-.77-2.29-.62-3.03.35-1.74.21-3.44.3-5.15,0,0,0,0,0,0Z"/><path class="cls-6" d="m548.72,392.71c1.15,1.86.79,3.79,1.9,5.18,2.44-2.24,5.4-2.56,8.38-1.76,3.12.84,4.26,3.88,2.85,7.39-1.43,3.58-3.32,6.88-6.85,8.92-.3.18-.85.4-.98.78-1.09,3.23-3.97,3.28-6.52,3.39-4.32.18-8.63.36-12.99-.32-3.15-.5-6.46-.05-9.63-.94-1.88-.53-3.78-.98-5.67-1.46-.36-.09-.85-.13-.84-.58.01-.45.35-.88.84-.88,3.6.04,6.37-2.25,9.52-3.43,3.21-1.21,6.28-2.83,9.26-4.55,3.33-1.93,6.31-4.39,9.06-7.11,1.12-1.11,1.37-2.63,1.67-4.63Zm6.59,6.73c-1.75.01-2.7.87-2.68,2.22.02,1.19,1.9,3.37,2.99,3.27,1.69-.17,2.14-1.69,2.15-2.93,0-1.47-.84-2.7-2.47-2.56Z"/><path class="cls-6" d="m571.4,491.76c-1.71,2.9-4.41,4.57-7.34,5.83-6.73,2.91-13.89,3.8-21.13,4.08-6.36.25-12.54-.89-18.55-2.97-.7-.24-1.42-.43-2.26-1.34,17.35,4.23,33.96,4.81,49.28-5.61Z"/><path class="cls-6" d="m536.26,302.82c-.09.05-.28.26-.4.22-.44-.13-.33-.55-.39-.89-.04-.23,0-.26.22-.19.38.12.66.29.57.86Z"/><path class="cls-6" d="m509.92,361.87c.1-.06-.07.07-.26.13-.05.02-.17-.16-.26-.25.15-.13.29-.29.47-.39.22-.13.29-.04.05.5Z"/><path class="cls-7" d="m63.32,461.88c0-48.66.19-97.33-.07-145.99-.14-26.5-1.55-52.99-1.39-79.48.08-13.34,1.76-26.75,3.79-39.96,2.37-15.5,12.03-23.31,27.76-23.55,23.82-.36,47.64-.44,71.46-.72,13.63-.16,17.27-3.34,19.21-16.57.83-5.63,1.54-11.28,2.29-16.92,1.82-13.68,8.7-19.69,22.83-20.25,9-.36,18.19-.09,26.87-2.01,3.49-.77,7.66-6.3,8.38-10.24,1.68-9.16,2.18-18.69,1.84-28.02-.71-19.96,11.87-23.29,26.04-19.4,14.53,3.99,29.09,7.92,43.4,12.61,41.02,13.44,81.82,27.53,122.95,40.62,6.13,1.95,14.03,1.41,20.28-.58,32.22-10.25,64.08-21.65,96.26-32.04,22.62-7.3,45.4-14.18,68.39-20.2,22.17-5.81,32.66,2.94,32.67,25.66,0,2.35-.03,4.7,0,7.05.19,20.12,3.21,23.08,23.48,23.03.34,0,.67-.02,1.01,0,36.63,2.05,34.84,4.76,34.12,33.14-.66,26.01-.07,26.2,25.72,26.28,21.79.06,43.58-.35,65.37-.57,15.4-.15,24.99,6.59,25.64,22.03,1.5,35.48,1.83,71.04,1.74,106.56-.13,47.63-1.5,95.26-1.57,142.88-.05,31.86,1.66,63.73,1.74,95.6.06,23.8-1.57,47.6-1.8,71.41-.28,27.81.53,55.64.12,83.44-.26,17.61-8.35,26.14-26.08,26.29-22.06.19-44.14-1.86-66.22-2.07-26.54-.25-29.25,3.3-27.25,30.06.39,5.25-.09,10.76-1.3,15.89-1.9,8.07-7.44,12.49-15.98,12.51-7.72.02-15.44.09-23.15-.12-17.49-.48-19.14,1.23-19.36,18.39-.1,8.35-.7,16.75-1.89,25.01-1.9,13.17-8.95,18.62-22.1,17.56-3.95-.32-7.91-1.38-11.7-2.62-37.83-12.41-75.69-24.78-113.41-37.52-12.36-4.17-24.39-9.33-36.51-14.19-12.67-5.07-25.14-5.15-38.21-.75-51.41,17.34-103.19,33.62-154.36,51.65-16.4,5.78-29.83-2.53-30.48-18.76-.29-7.35-.1-14.72-.22-22.08-.18-11.5-2.98-14.14-14.38-14.25-7.71-.08-15.44-.17-23.11-.82-12.96-1.1-19.25-7.61-20.26-20.54-.57-7.35-.73-14.73-1.24-22.08-.64-9.32-5.73-13.81-15.1-13.73-21.74.19-43.48.01-65.22.44-37.04.73-44.52-7.49-43.62-44.71,1.74-72.45,2.63-144.92,3.87-217.38l-1.25-.02Zm698.38,218.96c.02.63.04,1.26.07,1.89,12.07,0,24.15.09,36.22-.03,11.94-.12,14.26-3.71,13.53-15.4-1.17-19.02-2.01-38.13-1.6-57.17.72-33.18,3.22-66.32,3.66-99.49.46-34.88-1.15-69.78-.95-104.67.37-65.05,1.47-130.09,2.08-195.14.14-14.97-1.57-16.1-15.95-16.02-30.48.17-60.96-.08-91.44.19-8.84.08-12.6-2.84-12.24-12.28.42-11,.14-22.23-1.76-33.02-.78-4.43-6.03-10.5-10.22-11.44-12.01-2.68-24.5-3.84-36.84-4.16-8.72-.23-12.47-4.05-12.7-11.87-.31-10.38-.21-20.79.18-31.18.46-12.3-1.16-13.58-13.18-9.75-13.39,4.27-26.85,8.34-40.27,12.5-34.15,10.56-69.12,19.09-102.14,32.44-20.25,8.19-36.45,9.82-57.63,2.05-47.7-17.5-96.95-30.76-145.57-45.76-6.17-1.9-8.74.68-9.09,6.76-.65,11.37-2.06,22.72-2.1,34.08-.04,9.9-4.67,14.2-13.89,14.08-6.68-.09-13.35-1.21-20.03-1.4-17.83-.51-25.35,6.44-26.07,24.13-.3,7.36.23,14.76-.02,22.13-.27,8.09-4.53,12.01-12.89,11.92-28.78-.32-57.56-.3-86.34-.61-16.59-.18-19.37,2.25-19.65,18.62-.71,41.56-1.99,83.12-1.93,124.67.06,39.24,2.06,78.47,2.2,117.71.12,32.52-1.47,65.05-1.84,97.58-.44,37.84-.13,75.69-.65,113.53-.2,14.77,1.08,16.7,16.24,16.98,28.45.52,56.91,1.11,85.36,1.73,3.01.07,6.02.42,9,.87,8.96,1.36,13.63,5.89,12.78,15.71-.72,8.33-.55,16.77-.31,25.14.36,12.51,3.95,16.01,16.28,16.84,10.37.7,20.72,1.67,31.1,2.09,8.81.36,12.81,4.91,12.84,13.33.03,7.38-.26,14.76-.37,22.14-.25,16.51,2.69,18.38,18.26,12.9,50.2-17.67,100.5-35.05,150.68-52.79,8.49-3,15.99-2.04,24.26,1.16,23.7,9.17,47.58,17.89,71.62,26.13,28.81,9.87,57.94,18.77,86.73,28.67,10.27,3.53,15.11,1.02,15.47-10.19.37-11.7,1.03-23.41.79-35.09-.15-7.29,2.66-10.87,9.74-10.82,11.34.07,22.69.48,34.03.64,11.13.16,14.42-2.84,14.74-14.11.3-10.39.41-20.81.03-31.2-.26-7.11,2.41-10.69,9.6-11.13,20.07-1.22,40.13-2.59,60.19-3.89Z"/></svg>