<?xml version="1.0" encoding="UTF-8"?><svg id="Layer_1" xmlns="http://www.w3.org/2000/svg" xmlns:xlink="http://www.w3.org/1999/xlink" viewBox="0 0 1027.52 873.68"><defs><style>.cls-1{clip-path:url(#clippath);}.cls-2{fill:none;}.cls-2,.cls-3,.cls-4,.cls-5,.cls-6{stroke-width:0px;}.cls-7{font-family:FenwayParkJF, FenwayParkJF;font-size:126.38px;}.cls-7,.cls-4{fill:#1f514a;}.cls-8{letter-spacing:-.01em;}.cls-3{fill:#f2f5f6;}.cls-5{fill:#dc613a;}.cls-6{fill:#fef1de;}</style><clipPath id="clippath"><path class="cls-2" d="m61.74,450.35c0-47.45.18-94.9-.07-142.34-.14-25.83-1.51-51.67-1.36-77.5.07-13,1.72-26.08,3.69-38.97,2.31-15.12,11.73-22.73,27.07-22.97,23.22-.36,46.45-.43,69.68-.7,13.29-.15,16.84-3.26,18.73-16.16.81-5.49,1.5-10.99,2.23-16.49,1.77-13.34,8.48-19.2,22.26-19.74,8.77-.35,17.73-.09,26.2-1.96,3.41-.75,7.47-6.14,8.17-9.98,1.64-8.93,2.12-18.22,1.8-27.32-.69-19.46,11.58-22.71,25.39-18.91,14.16,3.89,28.37,7.73,42.32,12.3,39.99,13.11,79.78,26.84,119.88,39.6,5.98,1.9,13.68,1.37,19.78-.57,31.42-9.99,62.48-21.11,93.86-31.24,22.05-7.12,44.27-13.83,66.68-19.7,21.61-5.66,31.84,2.87,31.85,25.02,0,2.29-.03,4.58,0,6.87.19,19.62,3.13,22.5,22.89,22.46.33,0,.66-.02.98,0,35.72,2,33.97,4.65,33.27,32.31-.65,25.36-.07,25.55,25.08,25.62,21.25.06,42.5-.35,63.74-.55,15.02-.15,24.37,6.43,25,21.48,1.47,34.6,1.79,69.27,1.7,103.9-.12,46.44-1.46,92.88-1.53,139.32-.05,31.07,1.62,62.14,1.7,93.21.06,23.21-1.53,46.41-1.76,69.62-.27,27.12.51,54.25.12,81.36-.25,17.17-8.14,25.49-25.43,25.64-21.51.19-43.04-1.81-64.57-2.02-25.88-.25-28.52,3.21-26.57,29.31.38,5.12-.09,10.5-1.26,15.49-1.85,7.87-7.25,12.18-15.58,12.2-7.52.02-15.05.09-22.57-.12-17.06-.47-18.67,1.2-18.87,17.93-.1,8.14-.68,16.33-1.84,24.38-1.85,12.84-8.73,18.16-21.55,17.12-3.85-.31-7.72-1.34-11.41-2.55-36.89-12.11-73.8-24.16-110.58-36.59-12.05-4.07-23.78-9.1-35.6-13.83-12.36-4.94-24.51-5.02-37.26-.73-50.13,16.9-100.62,32.78-150.51,50.36-15.99,5.63-29.09-2.47-29.72-18.29-.28-7.17-.1-14.35-.21-21.52-.18-11.22-2.91-13.78-14.02-13.9-7.52-.08-15.05-.16-22.54-.8-12.63-1.07-18.77-7.42-19.76-20.03-.56-7.17-.71-14.36-1.2-21.53-.63-9.09-5.58-13.46-14.73-13.38-21.2.19-42.4.01-63.59.43-36.12.72-43.41-7.3-42.54-43.6,1.7-70.64,2.56-141.3,3.77-211.95l-1.22-.02Z"/></clipPath></defs><g class="cls-1"><rect class="cls-6" width="1027.52" height="873.68"/></g><path class="cls-4" d="m61.74,450.35c0-47.45.18-94.9-.07-142.34-.14-25.83-1.51-51.67-1.36-77.5.07-13,1.72-26.08,3.69-38.97,2.31-15.12,11.73-22.73,27.07-22.97,23.22-.36,46.45-.43,69.68-.7,13.29-.15,16.84-3.26,18.73-16.16.81-5.49,1.5-10.99,2.23-16.49,1.77-13.34,8.48-19.2,22.26-19.74,8.77-.35,17.73-.09,26.2-1.96,3.41-.75,7.47-6.14,8.17-9.98,1.64-8.93,2.12-18.22,1.8-27.32-.69-19.46,11.58-22.71,25.39-18.91,14.16,3.89,28.37,7.73,42.32,12.3,39.99,13.11,79.78,26.84,119.88,39.6,5.98,1.9,13.68,1.37,19.78-.57,31.42-9.99,62.48-21.11,93.86-31.24,22.05-7.12,44.27-13.83,66.68-19.7,21.61-5.66,31.84,2.87,31.85,25.02,0,2.29-.03,4.58,0,6.87.19,19.62,3.13,22.5,22.89,22.46.33,0,.66-.02.98,0,35.72,2,33.97,4.65,33.27,32.31-.65,25.36-.07,25.55,25.08,25.62,21.25.06,42.5-.35,63.74-.55,15.02-.15,24.37,6.43,25,21.48,1.47,34.6,1.79,69.27,1.7,103.9-.12,46.44-1.46,92.88-1.53,139.32-.05,31.07,1.62,62.14,1.7,93.21.06,23.21-1.53,46.41-1.76,69.62-.27,27.12.51,54.25.12,81.36-.25,17.17-8.14,25.49-25.43,25.64-21.51.19-43.04-1.81-64.57-2.02-25.88-.25-28.52,3.21-26.57,29.31.38,5.12-.09,10.5-1.26,15.49-1.85,7.87-7.25,12.18-15.58,12.2-7.52.02-15.05.09-22.57-.12-17.06-.47-18.67,1.2-18.87,17.93-.1,8.14-.68,16.33-1.84,24.38-1.85,12.84-8.73,18.16-21.55,17.12-3.85-.31-7.72-1.34-11.41-2.55-36.89-12.11-73.8-24.16-110.58-36.59-12.05-4.07-23.78-9.1-35.6-13.83-12.36-4.94-24.51-5.02-37.26-.73-50.13,16.9-100.62,32.78-150.51,50.36-15.99,5.63-29.09-2.47-29.72-18.29-.28-7.17-.1-14.35-.21-21.52-.18-11.22-2.91-13.78-14.02-13.9-7.52-.08-15.05-.16-22.54-.8-12.63-1.07-18.77-7.42-19.76-20.03-.56-7.17-.71-14.36-1.2-21.53-.63-9.09-5.58-13.46-14.73-13.38-21.2.19-42.4.01-63.59.43-36.12.72-43.41-7.3-42.54-43.6,1.7-70.64,2.56-141.3,3.77-211.95l-1.22-.02Zm680.96,213.49c.02.61.04,1.23.06,1.84,11.77,0,23.55.09,35.32-.03,11.64-.11,13.9-3.62,13.2-15.02-1.14-18.55-1.96-37.18-1.56-55.75.71-32.35,3.14-64.66,3.57-97.01.44-34.01-1.12-68.04-.93-102.06.36-63.43,1.44-126.85,2.03-190.27.14-14.6-1.53-15.7-15.55-15.62-29.72.17-59.44-.07-89.16.18-8.62.08-12.28-2.77-11.93-11.98.41-10.73.14-21.67-1.72-32.19-.76-4.32-5.88-10.24-9.97-11.15-11.71-2.61-23.89-3.75-35.92-4.06-8.5-.22-12.16-3.95-12.38-11.57-.3-10.12-.21-20.28.17-30.4.45-12-1.14-13.24-12.86-9.5-13.06,4.17-26.18,8.13-39.27,12.18-33.3,10.3-67.4,18.61-99.59,31.63-19.75,7.99-35.54,9.57-56.19,2-46.51-17.06-94.53-29.99-141.93-44.62-6.02-1.86-8.52.66-8.86,6.59-.63,11.08-2,22.15-2.05,33.23-.04,9.65-4.56,13.84-13.55,13.73-6.52-.08-13.01-1.18-19.53-1.36-17.39-.49-24.72,6.28-25.42,23.52-.29,7.18.23,14.39-.02,21.58-.27,7.89-4.41,11.71-12.57,11.62-28.06-.31-56.13-.29-84.19-.59-16.17-.18-18.88,2.19-19.16,18.15-.69,40.52-1.94,81.04-1.88,121.56.05,38.26,2.01,76.51,2.15,114.77.12,31.71-1.43,63.43-1.79,95.15-.42,36.9-.12,73.8-.63,110.69-.2,14.4,1.06,16.29,15.84,16.55,27.74.5,55.49,1.08,83.23,1.69,2.93.06,5.87.41,8.78.85,8.74,1.33,13.29,5.74,12.46,15.32-.7,8.12-.53,16.35-.3,24.52.35,12.19,3.85,15.61,15.88,16.42,10.11.68,20.2,1.63,30.32,2.04,8.59.35,12.5,4.79,12.52,13,.02,7.19-.26,14.39-.37,21.58-.24,16.1,2.62,17.93,17.8,12.58,48.95-17.23,98-34.18,146.92-51.47,8.28-2.93,15.59-1.99,23.65,1.13,23.11,8.94,46.4,17.45,69.84,25.47,28.09,9.62,56.5,18.3,84.57,27.96,10.01,3.44,14.73.99,15.08-9.93.36-11.41,1-22.82.77-34.22-.14-7.1,2.59-10.59,9.5-10.55,11.06.07,22.12.47,33.18.63,10.85.16,14.06-2.77,14.37-13.76.29-10.14.4-20.29.03-30.42-.25-6.94,2.35-10.42,9.36-10.85,19.57-1.19,39.13-2.52,58.69-3.8Z"/><path class="cls-4" d="m106.03,617.83c-1.41,3.3-4.01,6.47-3.3,8.46.97,2.73,4.26,6.08,6.91,6.44,5.43.73,11.1-.37,17.93-.79-3.29-6.63-3.65-11.16,2.55-14.16-2.51,4.93-.52,6.98,4.11,6.21,3.31-.55,6.65-1.74,9.65-3.28,13.41-6.88,26.26-8.17,39.2,1.55,4.45,3.34,10.22,4.92,16.61,7.86-11.77,1.1-22.62-11.55-32.82,1.02-.39-.37-.78-.74-1.17-1.12,1.45-3.45,2.91-6.89,4.54-10.75-6.39-2.64-12.95-1.5-19.14,1.58-6.89,3.43-13.56,7.34-20.25,11.17-10.35,5.92-21.18,4.94-31.75,1.46-2.66-.88-5.52-5.08-5.77-7.97-.18-1.99,3.7-4.84,6.29-6.42,1.97-1.19,4.78-.99,6.43-1.28Z"/><path class="cls-4" d="m765.54,624.26c1.41,3.3,4.01,6.47,3.3,8.46-.97,2.73-4.26,6.08-6.91,6.44-5.43.73-11.1-.37-17.93-.79,3.29-6.63,3.65-11.16-2.55-14.16,2.51,4.93.52,6.98-4.11,6.21-3.31-.55-6.65-1.74-9.65-3.28-13.41-6.88-26.26-8.17-39.2,1.55-4.45,3.34-10.22,4.92-16.61,7.86,11.77,1.1,22.62-11.55,32.82,1.02.39-.37.78-.74,1.17-1.12-1.45-3.45-2.91-6.89-4.54-10.75,6.39-2.64,12.95-1.5,19.14,1.58,6.89,3.43,13.56,7.34,20.25,11.17,10.35,5.92,21.18,4.94,31.75,1.46,2.66-.88,5.52-5.08,5.77-7.97.18-1.99-3.7-4.84-6.29-6.42-1.97-1.19-4.78-.99-6.43-1.28Z"/><path class="cls-4" d="m278.93,166.7c-2.39,11.97,6,13.83,14.06,15.67,14.6,3.32,25.29-5.9,37.96-11.75-5.5-6.83-17.92-9.13-14.01-19.99,1.66-4.6,8.25-7.42,13.9-9.96-5.67,6.95-5.43,13.71-.78,19.83,5.21,6.85,12.68,5.73,20.53,5.01,18.04-1.66,36.18-2.26,54.3-2.75,3.61-.1,7.28,2.24,10.83,3.97-34.95-8.01-66.84,1.39-98.38,15.35-10.78,4.77-22.81,7.26-34.53,9.13-6.7,1.07-13.96-3.03-14.1-10.5-.09-4.93,4.62-9.95,7.18-14.92,1.01.31,2.02.62,3.03.93Z"/><path class="cls-4" d="m480.85,165.05c17.9-5.97,35.91-4.41,53.92-1.22,3.84.68,7.88,3.22,11.32,2.49,5.63-1.19,12.89-2.97,15.66-7.07,2.69-3.98.58-11.19.58-19.06,3.95,3.24,9.47,6.05,12.33,10.55,3.22,5.05-.27,9.24-14.08,19.85,13.35,6.43,24.76,16.64,40.9,11.49,7.13-2.27,13.57-5.11,11.48-14.99,6.96,3.03,12.3,7.88,9.28,14.38-2.1,4.52-8.97,9.8-13.51,9.62-10.14-.4-21-2.24-30.07-6.61-31.1-14.98-62.94-24.3-97.82-19.44Z"/><text class="cls-7" transform="translate(176.83 288.34)"><tspan class="cls-8" x="0" y="0">C</tspan><tspan x="69.76" y="0">ool Beans</tspan></text><path class="cls-5" d="m221.43,652.18l-1.31-8.56h-8.68l-1.25,8.56c-.12.81-.62,1.25-1.37,1.25h-2.62c-.87,0-1.31-.69-1.19-1.56l6.5-42.29c.12-.94.62-1.37,1.5-1.37h5.62c.87,0,1.31.44,1.44,1.37l6.5,42.29c.12.94-.31,1.56-1.19,1.56h-2.62c-.69,0-1.25-.44-1.31-1.25Zm-9.43-12.93h7.5l-2.12-14.56-1.44-12.12h-.31l-1.44,12.12-2.19,14.56Z"/><path class="cls-5" d="m234.55,652.06c0,.88-.5,1.38-1.37,1.38h-2.06c-.87,0-1.37-.5-1.37-1.38v-47.29c0-.87.5-1.31,1.37-1.31h2.06c.87,0,1.37.44,1.37,1.31v47.29Z"/><path class="cls-5" d="m244.36,652.06c0,.88-.5,1.38-1.37,1.38h-2.06c-.87,0-1.37-.5-1.37-1.38v-47.29c0-.87.5-1.31,1.37-1.31h2.06c.87,0,1.37.44,1.37,1.31v47.29Z"/><path class="cls-5" d="m296.46,652.12c0,.81-.5,1.31-1.37,1.31h-2.06c-.87,0-1.37-.5-1.37-1.31v-26.11c0-2.62-.69-3.5-2.81-3.5s-3.25,1.12-3.25,3.75v25.86c0,.81-.44,1.31-1.31,1.31h-2.12c-.87,0-1.31-.5-1.31-1.31v-39.54h-8.18v39.48c0,.88-.5,1.38-1.37,1.38h-2.5c-.87,0-1.37-.5-1.37-1.38v-39.48h-7.12c-.87,0-1.37-.5-1.37-1.37v-1.69c0-.87.5-1.31,1.37-1.31h20.55v-3.44c0-.87.44-1.31,1.31-1.31h2.12c.87,0,1.31.44,1.31,1.31v16.05c1.62-1.56,3.81-2.44,5.75-2.44,2.75,0,5.12,1.75,5.12,5.75v27.99Z"/><path class="cls-5" d="m303.83,607.95c1.81,0,3.06,1.25,3.06,3.06s-1.25,3-3.06,3-3-1.25-3-3,1.25-3.06,3-3.06Zm2.44,44.1c0,.88-.5,1.38-1.37,1.38h-2.06c-.87,0-1.37-.5-1.37-1.38v-32.05c0-.87.5-1.31,1.37-1.31h2.06c.87,0,1.37.44,1.37,1.31v32.05Z"/><path class="cls-5" d="m326.88,652.12c0,.81-.44,1.31-1.31,1.31h-2.12c-.87,0-1.31-.5-1.31-1.31v-26.11c0-2.62-.75-3.5-2.81-3.5s-3.25,1.12-3.25,3.75v25.86c0,.81-.5,1.31-1.37,1.31h-2.06c-.87,0-1.37-.5-1.37-1.31v-32.11c0-.87.5-1.31,1.37-1.31h2.06c.87,0,1.37.44,1.37,1.31v.81c1.56-1.56,3.75-2.44,5.68-2.44,2.75,0,5.12,1.75,5.12,5.75v27.99Z"/><path class="cls-5" d="m347.5,657.87c0,5.18-1.87,8.06-8.43,8.06h-3.06c-.87,0-1.37-.44-1.37-1.31v-1.31c0-.88.5-1.37,1.37-1.37h3.06c2.94,0,3.69-1.5,3.69-4.12v-6.5c-1.62,1.56-3.81,2.44-5.75,2.44-2.75,0-5.12-1.75-5.12-5.75v-23.86c0-4,2.37-5.75,5.12-5.75,1.94,0,4.12.87,5.75,2.44v-.81c0-.87.44-1.31,1.31-1.31h2.12c.87,0,1.31.44,1.31,1.31v37.86Zm-10.81-11.81c0,2.69.69,3.5,2.75,3.5s3.31-1.06,3.31-3.69v-19.62c0-2.62-1.19-3.75-3.31-3.75s-2.75.87-2.75,3.5v20.05Z"/><path class="cls-5" d="m360.18,653.74c-6.06,0-7.81-2.62-7.81-7.43v-4c0-.87.44-1.37,1.31-1.37h2.12c.87,0,1.31.5,1.31,1.37v3.94c0,2.62.94,3.5,3.06,3.5s3-.88,3-3.5c0-3.87-.5-4.19-2.75-6.43l-4.75-4.62c-2.25-2.19-3.31-4.06-3.31-9.37,0-4.81,1.75-7.43,7.81-7.43s7.81,2.62,7.81,7.43v4c0,.87-.5,1.31-1.37,1.31h-2.06c-.87,0-1.37-.44-1.37-1.31v-3.94c0-2.69-.94-3.5-3-3.5s-3.06.81-3.06,3.5c0,3.87.5,4.12,2.75,6.43l4.75,4.62c2.25,2.19,3.37,4.06,3.37,9.37,0,4.81-1.81,7.43-7.81,7.43Z"/><path class="cls-5" d="m404.1,624.38c0,.87-.5,1.37-1.37,1.37h-2.5c-.87,0-1.37-.5-1.37-1.37v-7.31c0-3-.81-4.81-4.37-4.81s-4.37,1.81-4.37,4.81v27.49c0,3,.81,4.81,4.37,4.81s4.37-1.81,4.37-4.81v-7.37c0-.87.5-1.31,1.37-1.31h2.5c.87,0,1.37.44,1.37,1.31v7.37c0,5.93-2.12,9.18-9.62,9.18s-9.62-3.25-9.62-9.18v-27.49c0-5.93,2.12-9.18,9.62-9.18s9.62,3.25,9.62,9.18v7.31Z"/><path class="cls-5" d="m424.71,625.82v20.49c0,4.81-1.75,7.43-7.81,7.43s-7.81-2.62-7.81-7.43v-20.49c0-4.81,1.75-7.43,7.81-7.43s7.81,2.62,7.81,7.43Zm-10.81.06v20.36c0,2.62.94,3.5,3,3.5s3.06-.88,3.06-3.5v-20.36c0-2.69-.94-3.5-3.06-3.5s-3,.81-3,3.5Z"/><path class="cls-5" d="m436.39,622.7v29.36c0,.88-.5,1.38-1.37,1.38h-2.06c-.87,0-1.37-.5-1.37-1.38v-29.36h-2.69c-.87,0-1.37-.5-1.37-1.37v-1.31c0-.87.5-1.31,1.37-1.31h2.69v-3.81c0-5.25,1.87-8.12,8.5-8.12h4.62c1.12-2.19,3.25-3.31,7.43-3.31h1.56c.87,0,1.31.44,1.31,1.31v1.31c0,.87-.44,1.37-1.31,1.37h-1.56c-3,0-3.69,1.5-3.69,4.12v7.12h4c.88,0,1.31.44,1.31,1.31v1.31c0,.87-.44,1.37-1.31,1.37h-4v29.36c0,.88-.44,1.38-1.31,1.38h-2.12c-.87,0-1.31-.5-1.31-1.38v-29.36h-7.31Zm7.31-4v-7.93h-3.62c-3,0-3.69,1.5-3.69,4.19v3.75h7.31Z"/><path class="cls-5" d="m472.81,636.56c0,.94-.5,1.44-1.44,1.44h-9.37v8.25c0,2.62.94,3.5,3,3.5s3.06-.88,3.06-3.5v-2.25c0-.87.44-1.31,1.31-1.31h2.12c.87,0,1.31.44,1.31,1.31v2.31c0,4.81-1.75,7.43-7.81,7.43s-7.81-2.62-7.81-7.43v-20.49c0-4.81,1.75-7.43,7.81-7.43s7.81,2.62,7.81,7.43v10.74Zm-10.81-2.5h6.06v-8.18c0-2.69-.94-3.5-3.06-3.5s-3,.81-3,3.5v8.18Z"/><path class="cls-5" d="m493.43,636.56c0,.94-.5,1.44-1.44,1.44h-9.37v8.25c0,2.62.94,3.5,3,3.5s3.06-.88,3.06-3.5v-2.25c0-.87.44-1.31,1.31-1.31h2.12c.87,0,1.31.44,1.31,1.31v2.31c0,4.81-1.75,7.43-7.81,7.43s-7.81-2.62-7.81-7.43v-20.49c0-4.81,1.75-7.43,7.81-7.43s7.81,2.62,7.81,7.43v10.74Zm-10.81-2.5h6.06v-8.18c0-2.69-.94-3.5-3.06-3.5s-3,.81-3,3.5v8.18Z"/><path class="cls-5" d="m529.72,624.38c0,.87-.5,1.37-1.37,1.37h-2.5c-.87,0-1.37-.5-1.37-1.37v-7.31c0-3-.81-4.81-4.37-4.81s-4.37,1.81-4.37,4.81v27.49c0,3,.81,4.81,4.37,4.81s4.37-1.81,4.37-4.81v-7.37c0-.87.5-1.31,1.37-1.31h2.5c.87,0,1.37.44,1.37,1.31v7.37c0,5.93-2.12,9.18-9.62,9.18s-9.62-3.25-9.62-9.18v-27.49c0-5.93,2.12-9.18,9.62-9.18s9.62,3.25,9.62,9.18v7.31Z"/><path class="cls-5" d="m550.34,625.82v20.49c0,4.81-1.75,7.43-7.81,7.43s-7.81-2.62-7.81-7.43v-20.49c0-4.81,1.75-7.43,7.81-7.43s7.81,2.62,7.81,7.43Zm-10.81.06v20.36c0,2.62.94,3.5,3,3.5s3.06-.88,3.06-3.5v-20.36c0-2.69-.94-3.5-3.06-3.5s-3,.81-3,3.5Z"/><path class="cls-5" d="m570.26,621.01c1.75-1.69,3.87-2.62,6.43-2.62,2.75,0,5.12,1.75,5.12,5.75v27.99c0,.81-.5,1.31-1.37,1.31h-2.06c-.87,0-1.37-.5-1.37-1.31v-26.11c0-2.62-.69-3.5-2.81-3.5-2,0-3.25,1-3.25,3.75v25.86c0,.81-.44,1.31-1.31,1.31h-2.12c-.88,0-1.31-.5-1.31-1.31v-26.11c0-2.62-.75-3.5-2.81-3.5s-3.25,1.12-3.25,3.75v25.86c0,.81-.5,1.31-1.37,1.31h-2.06c-.87,0-1.37-.5-1.37-1.31v-32.11c0-.87.5-1.31,1.37-1.31h2.06c.88,0,1.37.44,1.37,1.31v.81c1.56-1.56,3.75-2.44,5.68-2.44s3.56.81,4.44,2.62Z"/><path class="cls-5" d="m586.82,620.01c0-.87.5-1.31,1.37-1.31h2.06c.88,0,1.37.44,1.37,1.31v.81c1.56-1.56,3.75-2.44,5.68-2.44,2.75,0,5.12,1.75,5.12,5.75v23.86c0,4-2.37,5.75-5.12,5.75-1.94,0-4.12-.88-5.68-2.44v13.31c0,.88-.5,1.31-1.37,1.31h-2.06c-.87,0-1.37-.44-1.37-1.31v-44.6Zm10.87,6c0-2.62-.75-3.5-2.81-3.5s-3.25,1.12-3.25,3.75v19.62c0,2.62,1.12,3.69,3.25,3.69s2.81-.81,2.81-3.5v-20.05Z"/><path class="cls-5" d="m618.3,633.94v-8.06c0-2.69-.94-3.5-3.06-3.5s-3,.81-3,3.5v2.69c0,.87-.5,1.31-1.37,1.31h-2.06c-.88,0-1.37-.44-1.37-1.31v-2.75c0-4.81,1.75-7.43,7.81-7.43s7.75,2.62,7.81,7.43v26.3c0,.81-.44,1.31-1.31,1.31h-2.12c-.88,0-1.31-.5-1.31-1.31v-.81c-1.62,1.56-3.81,2.44-5.75,2.44-2.75,0-5.12-1.75-5.12-5.75v-6.62c0-4.81,1.75-7.43,7.81-7.43h3.06Zm-3.06,3.94c-2.06,0-3,.87-3,3.5v4.69c0,2.69.69,3.5,2.75,3.5s3.31-1.06,3.31-3.69v-8h-3.06Z"/><path class="cls-5" d="m643.67,652.12c0,.81-.44,1.31-1.31,1.31h-2.12c-.88,0-1.31-.5-1.31-1.31v-26.11c0-2.62-.75-3.5-2.81-3.5s-3.25,1.12-3.25,3.75v25.86c0,.81-.5,1.31-1.37,1.31h-2.06c-.88,0-1.37-.5-1.37-1.31v-32.11c0-.87.5-1.31,1.37-1.31h2.06c.88,0,1.37.44,1.37,1.31v.81c1.56-1.56,3.75-2.44,5.69-2.44,2.75,0,5.12,1.75,5.12,5.75v27.99Z"/><path class="cls-5" d="m651.29,620.01l2.5,17.55,1.19,10.93h.31l1.19-10.93,2.44-17.55c.12-.94.56-1.31,1.56-1.31h2c.87,0,1.44.5,1.25,1.62l-6.75,44.29c-.12.88-.5,1.31-1.5,1.31h-2c-.87,0-1.44-.5-1.25-1.62l1.81-10.87h-1.06c-.94,0-1.38-.44-1.56-1.31l-4.87-31.8c-.19-1.12.44-1.62,1.25-1.62h2c1,0,1.38.37,1.5,1.31Z"/><path class="cls-4" d="m609.79,485.2c2.24,9.71-1.58,20.58-9.88,25.7-9.89,6.1-19.51,12.9-31.63,14.36-4.92.59-13.58,11.66-14.51,17.01-.54,3.13,1.91,2.07,3.07,2.43,15.19,4.73,30.83,4.04,46.41,3.47,7.13-.26,14.23-1.32,21.33-2.14,8.9-1.03,14.7,2.13,17.33,10.33,1.3,4.05-1.85,5.59-5.23,6.67-2.5.8-5.18-1.06-8.56,1.03,5.54,1.43,5.92,6.51,8.96,9.57,3.26,3.28-.29,10.18-5.41,11.21-1.8.36-3.7.54-5.52.39-25.35-2.09-50.37,1.66-75.48,4.09-11.85,1.15-23.72,2.01-35.56,3.34-12.11,1.36-24.35,1.68-36.02-2.24-11.14-3.74-22.05-.76-33.03-.23-22.92,1.1-44.18-3.29-62.37-18.04-13.92-11.28-24.18-25.49-31.73-41.68-3.37-7.24-6.59-14.55-9.97-22.03-7.57,5.03-15.27,8.94-19.14,17.97-3.78,8.82-12.66,11.3-21.38,12.38-6.18.77-9.13,2.27-7.6,9.53,1.43,6.76,1.11,13.94-.17,20.84-.68,3.69.42,4.73,3.95,4.74,1.96,0,4.07.71,5.85,1.63,2.65,1.37,6.62,3.08,5.08,6.51-1.62,3.6-3.68,8.04-9.58,7.18-10.38-1.5-20.85-1.79-31.3-.66-3.36.36-6.51-.37-9.73-.9-1.09-.18-2.1-.78-2.23-1.83-.13-1.09.86-1.69,1.82-2.2,3.15-1.69,6.64-2.01,10.04-2.72,1.2-.25,3.22.01,2.83-2.28-.31-1.79-1.21-2.93-3.33-2.81-4.5.26-9.02.52-13.52.52-2,0-4.69-.21-4.92-2.68-.22-2.36,2.4-2.31,4.12-2.71,3.79-.89,5.56-1.65,4.44-7-3.13-14.93-2.23-28.92,8.08-42.34,7.68-10,11.54-22.92,17.11-34.54,1.38-2.89-.66-5.12-1.6-7.47-6.48-16.19-9.77-32.64-4.35-49.85,2.24-7.12,4.97-13.98,11.77-18.15,1.71-1.05,2.12-2.09,1.03-3.97-6.92-11.97-5.33-24.28-.19-36.11,7.03-16.17,17.93-29.32,35.67-33.85,12.52-3.2,25.34-2.65,35.74,7.08,5.71,5.34,7.07,13.06,3.5,18.24-2.96,4.3-7.21,4.41-9.49-.27-2.38-4.88-5.74-6.26-10.87-5.71-6.4.68-12.98-.98-19.28,1.49-.67.26-1.38.17-2.09.75-11.99,9.73-20.32,21.29-19.58,37.67.19,4.25,1.43,5.66,5.81,3.87,13.61-5.54,25.68-1.18,37.07,6.42,22.27,14.86,39.65,34.88,57.5,54.43,14.41,15.79,29.73,30.61,48.06,41.95,8.72,5.4,18.42,7.71,28.35,9.46,2.61.46,3.87-1.12,5.12-2.58,5.97-7.01,12.23-13.79,17.06-21.72,3.47-5.68,7.99-10.48,13.88-13.68,7.7-4.18,15.85-2.64,23.54-.4,5.82,1.7,11.21,4.95,16.7,7.7,4.52,2.27,9.17,2.39,13.75.83,9.99-3.41,20.69-3.14,30.74-6.17.85-.26,1.97.34,2.96.54-.32,1.61-.63,3.21-.95,4.82-9.64,1.89-19.26,3.87-28.92,5.66-10.98,2.04-21.84,3.48-31.23-5.08-2.21-2.02-5.27-3.14-8-4.56-3.2-1.67-6.39-1.91-10.02-.8-11.24,3.45-19.32,10.36-24.38,20.91-3.27,6.81-6.35,13.69-13.4,17.77-1.93,1.12-5.18.11-5.93,3.47,4.63,2.48,7.36,5.83,4.91,11.3-1.47,3.28-8.47,5.98-12.46,4.48-4.77-1.79-3.87-6.11-3.76-9.94.02-.61.06-1.25.25-1.82.74-2.24-.44-2.75-2.37-3.15-10.47-2.18-19.59-7.25-27.91-13.77-2.3-1.8-3.23-1.59-5.31.42-4.82,4.65-9.91,9.05-17.15,9.8-3.58.37-5.89-.39-7.22-3.95-3.3-8.82-6.19-17.5,1.82-25.52,1.42-1.42,2.65-2.89.32-5.06-4.2-3.9-8.08-8.15-11.97-12.36-1.17-1.26-2.31-1.58-3.79-.99-4.48,1.79-8.14-.78-11.42-2.85-3.28-2.08-6.18-5.91-2.85-9.7,3.86-4.38,1.3-6.67-1.55-9.44-1.85-1.8-3.49-3.83-5.45-5.47-1.45-1.22-2.43-4.22-4.72-2.98-1.63.88-2.06,3.42-1.85,5.59.1,1.02-.03,2.06.07,3.07.46,4.77-2.44,5.77-6.37,6.12-2.84.25-3.93-2.61-6.57-2.86-5.74-.55-9.35-6.14-9.45-13.75-.08-6.03,4.47-7.06,8.84-8.5,2.53-.83,4.55,1.33,7.53.75-3-2.5-5.61-4.74-8.29-6.9-13.58-10.93-28.04-19.47-46.51-16.88-4.46.63-6.76-1.6-8.3-5.4-1.74-4.28-2.43-8.5-1.51-13.19,1.63-8.27,5.46-15.46,9.85-22.61-5.12,4.87-11.31,9.48-13.77,15.6-3.43,8.54-2.55,18.34-.34,27.34.9,3.68.91,5.97-1.71,8.36-2.04,1.85-1.3,3.36.3,5.14,6.16,6.81,6.85,10.39.41,16.55-9.71,9.3-10.92,19.3-5.67,30.97,1.26,2.79,1.96,5.83,3.09,8.69,2.48,6.26,3.57,12.89,2.27,19.33-1.12,5.54-2.19,11.26-4.77,16.47-.55,1.1-1.6,1.94-.53,3.77,4.38,7.5-2.72,19.27-11.47,19.35-6.21.05-7.34,1.91-4.43,7.67,1.72,3.4,2.4,6.74,2.07,10.63-.8,9.18,2.07,17.84,4.68,26.49.51,1.69,1.34,4.22,3.68,2.97,5.74-3.07,10.87-1.55,15.8,2.03.93-5.43-1.27-7.52-5.68-8.52-2.67-.61-3.65-3.14-3-5.91,1.57-6.7.92-13.49,1.01-20.26.17-12.13.76-12.97,12.75-16.44,2.09-.61,3.73-1.58,2.77-3.64-2.54-5.47.7-9.06,4.32-11.47,3.05-2.03,6.27-7.96,11.26-2.21.65.75,1.37-.22,1.89-.83,7.84-9.28,20.16-15.53,19.97-30.26-.02-1.63.89-5.15,3.96-4.4,2.35.57,3.2,3.35,3.02,5.58-.44,5.33-1.65,10.6-4.4,15.23-1.18,1.98-1.08,3.19.29,4.8,5.92,6.97,9.12,15.53,13.46,23.41,14.44,26.24,34.24,45.41,65.21,50.16,8.57,1.31,17.1,2.32,26.9,1.35-3.21-1.85-5.06-3.28-6.48-5.39-3.16-4.69-6.78-6.94-13.22-5.02-8.54,2.56-17.42-7.75-15.2-16.65,1.27-5.06,12.27-9.05,15.65-5.39,3.15,3.41,6.58,7.1,8.15,11.32,4.21,11.3,12.6,16.87,23.63,19.5,4.58,1.09,9.27,1.79,13.83,2.95,12.21,3.1,24.51,5.24,37.15,3.79,1.96-.23,4.42.59,5.7-2.1,4.78-10.06,10.65-11.22,18.51-3.39,1.98,1.97,3.59,2.55,6.29,2.29,11.84-1.16,23.67-2.36,35.43-4.26,2.77-.45,4.48-1.48,6.43-3.72,4.17-4.81,9.97-5.37,16.23-4.62,3.99.47,5.29,2.26,5.53,5.75.06.93.75,1.42,1.64,1.53,6.94.81,13.88,1.2,20.81.08,1.08-.17,2.5-.81,2.33-2.38-.14-1.35-1.29-2.27-2.45-2.43-1.58-.22-3.24.15-4.86.17-2.44.03-2.87-1.11-1.67-3.09,1.09-.52,2.17-1.05,3.26-1.57.47-.28,1.39-.72,1.36-.82-.43-1.23-1.34-1.16-2.34-.69-1.18.6-2.36,1.2-3.53,1.8-1.3-.22-3.83.49-3.53-1.24.91-5.23-2.52-3.85-4.98-3.62-13.48,1.29-26.94,2.81-40.44,3.99-3.31.29-5.48.35-6.19,4.66-.82,4.99-5.66,5.45-9.81,5.42-4.02-.04-9.82.22-10.05-4.76-.28-6.3-3.92-4.65-6.8-4.22-15.02,2.22-29.86.23-44.75-1.28-4.79-.49-9.48-1.53-13.12-4.7-3.92-3.43-6.58-3.45-9.55,1.14-3.41,5.27-8.79,2.58-13.4,2.39-4.16-.17-6.03-3.46-6.92-6.86-1.21-4.62,1.18-8.75,3.58-12.36,1.16-1.75,2.45-2.5.35-4.21-.88-.71-2.31-1.61-1.18-2.93,1.19-1.39,2.62-.34,3.91.24,5.99,2.68,11.89,5.48,17.48,8.99,5.02,3.15,9.68,6.85,15.22,9.24,3.81,1.64,6.44,1.51,8.22-2.51,1.77-4,4.87-5.81,9.23-5.89,6.78-.13,13.06,4.9,14.21,11.93.26,1.56.63,2.27,2.11,2.1,3.06-.35,6.11-.73,9.14-1.24,1.65-.28,2.48-1.7,2.34-3.16-.18-1.95-1.76-.96-2.85-.91-3.22.15-4.18-3.11-3.82-4.5,1.29-5.03.64-10.86,4.5-14.91,2.99-3.14,6.37-6.97,11.53-4.19,2.61,1.4,2.74-.61,3.38-1.83,2.99-5.71,7.44-10.66,7.12-17.96-.18-4,3.63-6.76,7.46-6.85,3.53-.08,5.81,2.81,5.7,6.59-.05,1.65.29,2.57,1.83,2.01,10.33-3.7,20.14-8.28,27.84-16.66-2.2-1.19-5.22,1.18-5.72-1.65-.37-2.14,2.64-2.32,4.18-2.49,7.77-.87,7.43-6.79,7.98-12.22.94-.04,1.88-.08,2.81-.12Zm26.27,73.79c-.04-.65-.09-1.3-.13-1.96-1.18-.25-3.35-.41-3.38-.75-.54-6.47-5.58-4.14-8.72-4.13-11.5.05-22.62,4.01-34.19,3.81-.57,0-1.52.15-1.66.49-2.52,6.02-8.42,3.95-12.82,5.28-5.06,1.53-7.62-1.35-8.6-6.07-.39-1.91-13.5-9.26-15.18-8.45-.48.23-.79.91-1.08,1.43-2.71,4.94-5.4,9.89-8.01,14.67,31.71,3.05,62.37-6.26,93.78-4.32Zm-274.61-203.03c-.83-3.05-1.96-7.26-5.56-8.97-10.72-5.06-21.84-7.71-33.41-2.42-3.14,1.44-6.23,2.89-9.14,4.87-3.43,2.34.66,4.28-.12,6.48-.28.79.57,1.21,3.51-.57,9.1-5.49,19.03-6.26,29.1-4.56,4.53.76,9.87,1.54,11.42,7.58.23.89,1.96,2.14,2.73,1.98,1.64-.34,1.56-2.12,1.48-4.38Zm-93.67,212.04c-.97-6.79.41-13.3-1.96-19.56-2.84-7.52-.71-14.41,4.07-20.11,7.47-8.91,10.74-19.59,14.01-30.29.73-2.38,2.14-5.54.36-8.07-4.92,13.27-7.76,27.14-17.32,38.24-2.64,3.07-6.43,6.01-5.5,11.12,1.24,6.81,1.94,13.65,1.39,20.63-.26,3.27.64,6.48,4.96,8.05Z"/><path class="cls-5" d="m338.18,329.2c9.89-5.53,25.89-1.45,31.51,7.93.98,1.63,1.93,3.56.69,5.15-1.84,2.36-3.95.26-5.36-.73-6.26-4.37-11.88-9.69-19.99-10.82-2.21-.31-4.94.71-6.84-1.54Z"/><path class="cls-5" d="m377.64,333.99c-.3,2.73-2.2,4.36-4.41,2.41-4.24-3.72-7.88-8.11-11.71-12.28-1.42-1.55-.75-2.61,1.1-2.96,4.25-.79,15.05,8.34,15.02,12.83Z"/><path class="cls-5" d="m609.79,485.2c-.94.04-1.88.08-2.81.12-2.21.06-3.72-1.02-4.71-2.93.31-1.61.63-3.22.95-4.82.41-.02.81-.04,1.21-.07,2.7-.21,5.27-4.41,8.04-.65,2.74,3.72-1.57,5.62-2.68,8.35Z"/><path class="cls-5" d="m618.18,466.72c3.01-.17,2.46-3.81,4.68-4.8,1.46-.65,2.84-1.83,4.36-.26,1.46,1.52.67,2.9-.32,4.31-3.06,4.39-6.51,4.66-8.61.63l-.11.11Z"/><path class="cls-5" d="m611.59,463.9c-.6,1.36.3,4.09-1.91,3.81-2.4-.31-2.07-3.12-2.29-5.07-.16-1.45,0-3.38,1.86-3.18,2.38.26,1.92,2.72,2.34,4.44Z"/><path class="cls-5" d="m618.29,466.6c-1.72.13-4.2.94-3.48-2.18.53-2.3.1-5.45,3.11-6.44,1.96-.64,1.68,1.25,1.55,2.27-.29,2.17-.84,4.31-1.28,6.47,0,0,.11-.11.11-.11Z"/><path class="cls-3" d="m602.26,482.4c.99,1.91,2.5,2.98,4.71,2.93-.56,5.43-.22,11.35-7.98,12.22-1.55.17-4.56.35-4.18,2.49.5,2.84,3.52.46,5.72,1.65-7.7,8.38-17.52,12.96-27.84,16.66-1.54.55-1.88-.36-1.83-2.01.11-3.78-2.17-6.67-5.7-6.59-3.83.09-7.64,2.85-7.46,6.85.33,7.31-4.13,12.25-7.12,17.96-.64,1.23-.77,3.24-3.38,1.83-5.16-2.78-8.53,1.05-11.53,4.19-3.86,4.05-3.21,9.89-4.5,14.91-.35,1.38.6,4.65,3.82,4.5,1.09-.05,2.67-1.04,2.85.91.14,1.47-.69,2.88-2.34,3.16-3.03.51-6.09.89-9.14,1.24-1.48.17-1.85-.54-2.11-2.1-1.15-7.03-7.43-12.06-14.21-11.93-4.36.08-7.46,1.89-9.23,5.89-1.79,4.02-4.42,4.15-8.22,2.51-5.54-2.39-10.2-6.09-15.22-9.24-5.59-3.5-11.49-6.31-17.48-8.99-1.3-.58-2.73-1.63-3.91-.24-1.13,1.32.31,2.21,1.18,2.93,2.1,1.71.81,2.46-.35,4.21-2.4,3.61-4.79,7.74-3.58,12.36.89,3.4,2.76,6.69,6.92,6.86,4.61.19,9.99,2.88,13.4-2.39,2.97-4.6,5.63-4.57,9.55-1.14,3.64,3.18,8.33,4.21,13.12,4.7,14.88,1.51,29.73,3.5,44.75,1.28,2.88-.43,6.51-2.08,6.8,4.22.23,4.98,6.03,4.73,10.05,4.76,4.14.04,8.99-.43,9.81-5.42.71-4.32,2.88-4.37,6.19-4.66,13.49-1.19,26.95-2.71,40.44-3.99,2.46-.23,5.89-1.61,4.98,3.62-.3,1.73,2.23,1.02,3.53,1.24.42.43.84.86,1.26,1.29-1.2,1.98-.77,3.12,1.67,3.09,1.62-.02,3.28-.4,4.86-.17,1.16.16,2.3,1.08,2.45,2.43.17,1.57-1.25,2.21-2.33,2.38-6.93,1.11-13.88.73-20.81-.08-.89-.1-1.57-.6-1.64-1.53-.24-3.49-1.54-5.27-5.53-5.75-6.26-.74-12.06-.19-16.23,4.62-1.94,2.25-3.66,3.28-6.43,3.72-11.76,1.89-23.59,3.1-35.43,4.26-2.7.26-4.31-.31-6.29-2.29-7.86-7.83-13.73-6.67-18.51,3.39-1.28,2.7-3.74,1.88-5.7,2.1-12.64,1.45-24.94-.69-37.15-3.79-4.57-1.16-9.25-1.86-13.83-2.95-11.03-2.63-19.41-8.21-23.63-19.5-1.57-4.21-5-7.91-8.15-11.32-3.38-3.66-14.38.33-15.65,5.39-2.23,8.9,6.65,19.2,15.2,16.65,6.44-1.93,10.06.33,13.22,5.02,1.42,2.11,3.27,3.54,6.48,5.39-9.8.97-18.34-.03-26.9-1.35-30.98-4.75-50.77-23.92-65.21-50.16-4.34-7.89-7.54-16.44-13.46-23.41-1.37-1.61-1.47-2.82-.29-4.8,2.76-4.63,3.96-9.9,4.4-15.23.18-2.22-.67-5.01-3.02-5.58-3.07-.75-3.98,2.76-3.96,4.4.19,14.73-12.13,20.98-19.97,30.26-.52.61-1.24,1.58-1.89.83-4.99-5.76-8.21.18-11.26,2.21-3.63,2.41-6.87,6-4.32,11.47.96,2.06-.68,3.03-2.77,3.64-12,3.48-12.58,4.32-12.75,16.44-.1,6.76.56,13.56-1.01,20.26-.65,2.78.33,5.31,3,5.91,4.4,1,6.61,3.08,5.68,8.52-4.94-3.58-10.06-5.1-15.8-2.03-2.34,1.25-3.17-1.28-3.68-2.97-2.61-8.64-5.48-17.31-4.68-26.49.34-3.89-.35-7.24-2.07-10.63-2.91-5.76-1.78-7.62,4.43-7.67,8.75-.08,15.85-11.85,11.47-19.35-1.07-1.84-.02-2.67.53-3.77,2.58-5.21,3.65-10.93,4.77-16.47,1.3-6.44.21-13.07-2.27-19.33-1.13-2.86-1.83-5.89-3.09-8.69-5.25-11.67-4.04-21.67,5.67-30.97,6.44-6.17,5.75-9.74-.41-16.55-1.61-1.77-2.34-3.28-.3-5.14,2.62-2.39,2.61-4.68,1.71-8.36-2.21-9-3.09-18.81.34-27.34,2.46-6.11,8.65-10.73,13.77-15.6-4.39,7.15-8.22,14.33-9.85,22.61-.93,4.69-.23,8.91,1.51,13.19,1.54,3.79,3.84,6.02,8.3,5.4,18.46-2.59,32.93,5.96,46.51,16.88,2.68,2.16,5.29,4.4,8.29,6.9-2.99.59-5.01-1.58-7.53-.75-4.37,1.44-8.92,2.48-8.84,8.5.1,7.61,3.7,13.2,9.45,13.75,2.64.25,3.73,3.12,6.57,2.86,3.94-.35,6.84-1.35,6.37-6.12-.1-1.02.03-2.06-.07-3.07-.21-2.18.22-4.71,1.85-5.59,2.28-1.24,3.27,1.77,4.72,2.98,1.97,1.65,3.61,3.68,5.45,5.47,2.85,2.77,5.41,5.06,1.55,9.44-3.33,3.79-.43,7.62,2.85,9.7,3.28,2.07,6.94,4.64,11.42,2.85,1.48-.59,2.63-.27,3.79.99,3.89,4.22,7.77,8.47,11.97,12.36,2.33,2.17,1.1,3.64-.32,5.06-8.01,8.02-5.11,16.71-1.82,25.52,1.33,3.56,3.64,4.32,7.22,3.95,7.24-.75,12.33-5.15,17.15-9.8,2.09-2.01,3.02-2.22,5.31-.42,8.31,6.52,17.43,11.59,27.91,13.77,1.93.4,3.11.91,2.37,3.15-.19.57-.23,1.21-.25,1.82-.11,3.84-1.01,8.15,3.76,9.94,3.99,1.5,10.99-1.2,12.46-4.48,2.45-5.48-.28-8.83-4.91-11.3.75-3.37,3.99-2.36,5.93-3.47,7.04-4.08,10.13-10.96,13.4-17.77,5.06-10.55,13.14-17.46,24.38-20.91,3.63-1.12,6.82-.88,10.02.8,2.73,1.42,5.78,2.54,8,4.56,9.39,8.56,20.25,7.12,31.23,5.08,9.66-1.8,19.28-3.77,28.92-5.66Zm-67.44,15.94c.77-3.75-1.9-6.36-3-9.33-2.61-7.08-8.85-8.59-14.47-3.46-3.33,3.04-6.75,5.93-10.21,8.81-10.43,8.7-11.84,18.89-4.46,30.41,1.89,2.95,3.4,5.79,3.84,9.48.5,4.19,2.78,7.87,7.76,8.22,6.1.43,13.18-3.75,13.81-9.93,1.18-11.66,2.47-23.19,6.72-34.21Zm-155.82-12.29c-.99-5.74-4.4-12-10.49-16.17-6.13-4.2-12.54-1.14-15.06,5.71-2.14,5.82-.16,10.54,1.82,15.77,3.06,8.08,6.07,10.36,14.32,9.11,6.41-.97,9.47-5.11,9.41-14.42Zm-77.77-3.44c.2,1.34.56,2.94.65,4.55.18,3.13,1.48,5.81,4.43,6.63,3.02.84,6.04.27,7.61-3.27.46-1.03,1.72-1.68,2.5-2.59,3.96-4.66,3.54-9.99,1.09-14.83-1.38-2.72-3.36-6.54-7.78-5.45-5.65,1.39-7.09,6.15-8.14,11.05-.25,1.19-.23,2.43-.36,3.92Zm89.75,66.38c9.42.14,10.4-.47,10.58-6.68.2-6.93-5.19-12.79-11.94-12.97-5.06-.13-9.64,5.73-9.56,12.24.06,4.87,3.63,7.29,10.91,7.41Zm-68.85-136.53c-7.05.04-12.37,3.77-12.25,8.59.13,5.05,4.56,8.63,10.71,8.66,7.58.04,11.94-3.24,12.03-9.03.06-4.01-5.35-8.24-10.49-8.22Zm-23.55,32.31c.18,7.81,2.83,12.27,7.15,12,4.88-.3,9.93-6.01,9.61-10.88-.24-3.82-5.61-9.49-9.03-9.54-4.86-.08-7.85,3.18-7.73,8.42Zm134.74,93.36c4.15-.03,8.11-.76,8.54-6.26.26-3.32-4.09-8.91-6.77-8.2-3.89,1.03-8.65,2.61-8.95,7.14-.24,3.61,1.67,7.72,7.18,7.32Zm120.78-35.32c-.13-4.5-2.36-7.24-6.72-7.13-4.78.12-6.64,3.65-6.61,7.9.02,4.47,2.91,6.58,7.18,6.51,4.75-.08,6.08-3.29,6.16-7.28Z"/><path class="cls-3" d="m636.06,558.99c-31.4-1.95-62.06,7.37-93.78,4.32,2.61-4.78,5.3-9.73,8.01-14.67.29-.53.6-1.2,1.08-1.43,1.68-.81,14.79,6.55,15.18,8.45.97,4.72,3.54,7.61,8.6,6.07,4.39-1.33,10.3.74,12.82-5.28.14-.34,1.09-.5,1.66-.49,11.57.2,22.69-3.75,34.19-3.81,3.14-.01,8.18-2.34,8.72,4.13.03.34,2.2.51,3.38.75.04.65.09,1.3.13,1.96Z"/><path class="cls-3" d="m361.45,355.96c.08,2.26.17,4.04-1.48,4.38-.77.16-2.51-1.09-2.73-1.98-1.55-6.04-6.88-6.81-11.42-7.58-10.07-1.7-20-.93-29.1,4.56-2.94,1.78-3.79,1.36-3.51.57.78-2.2-3.31-4.14.12-6.48,2.91-1.98,5.99-3.43,9.14-4.87,11.58-5.29,22.7-2.64,33.41,2.42,3.61,1.7,4.74,5.91,5.56,8.97Z"/><path class="cls-3" d="m267.78,568c-4.32-1.57-5.21-4.78-4.96-8.05.55-6.98-.14-13.81-1.39-20.63-.93-5.11,2.86-8.05,5.5-11.12,9.56-11.1,12.4-24.97,17.32-38.24,1.78,2.53.37,5.69-.36,8.07-3.27,10.69-6.54,21.38-14.01,30.29-4.78,5.7-6.91,12.58-4.07,20.11,2.37,6.26.99,12.78,1.96,19.56Z"/><path class="cls-3" d="m627.26,569.51c-1.09.52-2.17,1.05-3.26,1.57-.42-.43-.84-.86-1.26-1.29,1.18-.6,2.36-1.2,3.53-1.8.33.5.65,1.01.98,1.51Z"/><path class="cls-3" d="m626.28,568c.99-.47,1.91-.54,2.34.69.04.11-.88.54-1.36.82-.33-.5-.65-1.01-.98-1.51Z"/><path class="cls-4" d="m534.82,498.34c-4.25,11.02-5.54,22.55-6.72,34.21-.63,6.18-7.71,10.36-13.81,9.93-4.98-.35-7.26-4.04-7.76-8.22-.44-3.69-1.96-6.53-3.84-9.48-7.38-11.53-5.97-21.72,4.46-30.41,3.46-2.88,6.88-5.77,10.21-8.81,5.62-5.14,11.86-3.62,14.47,3.46,1.1,2.98,3.76,5.59,3,9.33Z"/><path class="cls-4" d="m379.01,486.05c.06,9.31-3.01,13.45-9.41,14.42-8.25,1.25-11.26-1.02-14.32-9.11-1.98-5.23-3.96-9.95-1.82-15.77,2.52-6.85,8.93-9.92,15.06-5.71,6.09,4.17,9.5,10.43,10.49,16.17Z"/><path class="cls-4" d="m301.24,482.61c.13-1.49.11-2.74.36-3.92,1.04-4.9,2.48-9.65,8.14-11.05,4.42-1.09,6.4,2.73,7.78,5.45,2.45,4.84,2.87,10.17-1.09,14.83-.78.92-2.04,1.56-2.5,2.59-1.57,3.54-4.59,4.12-7.61,3.27-2.95-.82-4.25-3.5-4.43-6.63-.09-1.61-.45-3.21-.65-4.55Z"/><path class="cls-4" d="m390.99,548.99c-7.28-.11-10.85-2.53-10.91-7.41-.08-6.51,4.5-12.37,9.56-12.24,6.75.18,12.14,6.03,11.94,12.97-.18,6.2-1.16,6.82-10.58,6.68Z"/><path class="cls-4" d="m322.15,412.46c5.14-.03,10.55,4.21,10.49,8.22-.08,5.79-4.45,9.06-12.03,9.03-6.15-.03-10.58-3.61-10.71-8.66-.12-4.82,5.2-8.55,12.25-8.59Z"/><path class="cls-4" d="m298.6,444.77c-.12-5.24,2.87-8.5,7.73-8.42,3.42.06,8.79,5.73,9.03,9.54.31,4.87-4.73,10.58-9.61,10.88-4.31.27-6.97-4.19-7.15-12Z"/><path class="cls-4" d="m433.33,538.13c-5.51.4-7.42-3.71-7.18-7.32.3-4.54,5.06-6.11,8.95-7.14,2.68-.71,7.03,4.88,6.77,8.2-.42,5.5-4.39,6.23-8.54,6.26Z"/><path class="cls-4" d="m554.12,502.81c-.08,3.99-1.41,7.21-6.16,7.28-4.27.07-7.15-2.04-7.18-6.51-.02-4.26,1.83-7.78,6.61-7.9,4.36-.11,6.59,2.63,6.72,7.13Zm-5.9,4.56c2.78-.59,3.35-2.62,3.18-5-.08-1.06-1.53-2.65-1.57-2.36-.58,3.8-5.69.8-5.9,3.84-.15,2.17,2.17,3.13,4.29,3.52Z"/><path class="cls-3" d="m548.22,507.37c-2.12-.39-4.44-1.35-4.29-3.52.21-3.03,5.32-.04,5.9-3.84.05-.3,1.49,1.29,1.57,2.36.17,2.38-.4,4.41-3.18,5Z"/><path class="cls-5" d="m554.18,441.93c.35,3.16-.59,6.08-1.4,8.97-.54,1.9-.38,2.96,1.53,4,5.13,2.78,7.33,7.37,7.17,13.12-.03,1.2-.13,2.4-1.43,3.18-1.23.74-.8,2.41-1.71,3.56-3.79,4.85-8.89,7.26-14.62,8.87-9.5,2.66-18.98,1.88-28.52.34-4.45-.72-8.83-1.68-12.69-4.01-2.93-1.77-5.88-3.71-7.93-6.58-2.85-4.01-3.83-8.16-1.39-12.91,1.62-3.17,4.04-5.33,6.9-7.12,1.29-.81,2.02-1.54,1.36-3.13-.24-.57-.08-1.31-.13-1.97-.04-.48.06-.89.49-1.14.6-.36,1.05.08,1.32.45,1.71,2.29,4.42,2.68,6.83,3.57,8.43,3.09,17.06,3.16,25.84,1.67,2.8-.47,5.69-.62,8.32-1.65,4.45-1.74,8.92-3.66,10.08-9.19Z"/><path class="cls-5" d="m496.5,377.91c-.45-.55-.76-1.36-.39-1.82,1.42-1.77.47-3.27-.26-4.88-.82-1.81-1.47-3.69-2.29-5.49-1.12-2.46-.64-4.88.05-7.31.34-1.18,1.32-2.02,2.37-2.05,2.56-.07,5.03-.59,7.26,2.01,2.11,2.44,5.33,3.91,8.34,5.35,2.6,1.24,5.24,2.25,7.6,4.1,1.93,1.52,4.64,2.02,7.13,2.61,1.89.45,3.69,1.44,5.76.96.55-.13.95.34,1.09.88.28,1.04-2.43,4.74-3.53,4.81-6.75.41-13.49.8-20.25.87-.43,0-1.24-.43-1.24.6.08.47.41.36.72.3,5.8.44,11.6.18,17.36-.37,1.95-.19,4.2.62,5.86-1.17.3.32.99.09.98.86-.02,2.11.1,4.22.03,6.33-.02.51-.49,1.05-.85,1.5-3.55,4.58-8.39,7.43-13.4,10.08-3.88,2.05-8.14,3.18-12.13,4.97-2.49,1.12-4.86-.44-7.29-.72-.48-.05-.92-.41-1.49-.11.6.97,1.38,1.7,2.42,2.14,6.2,2.63,12.63,4.17,19.36,4.65,5.24.37,10.48.89,15.69.21,1.66-.22,3.73-.25,4.87-2.09.21-.34.56-.81,1.06-.58.64.3.4.91.19,1.33-.57,1.14-.32,2.37-.99,3.66-1.59,3.05-4.27,3.12-6.86,3.86-1.79.52-3.5,1.31-5.3,1.83-2.63.76-5.27,1.55-8.05,1.62,0,0-.05-.05-.05-.05l.02.06c-1.07.96-2.52,1.16-3.77,1.26-4.82.4-9.38,2.21-14.25,2.41-1.52.06-3.07.75-4.69.66-.51-.03-1.2.09-1.32-.5-.55-2.55-2.92-3.21-4.6-4.6-2.19-1.81-4.5-3.46-5.5-6.38-.85-2.48-.43-4.72,1.06-6.63,1.62-2.07,4.01-2.49,6.53-1.96.51.11.99.3,1.46-.05.41-.3,1.2.17,1.33-.79.11-.78-.36-.94-.82-1.32-1.75-1.46-3.51-2.95-4.79-4.83-1.45-2.13-2.5-4.45-1.53-7.17.46-1.29,1.15-2.3,2.45-2.93,1.15-.55,2-1.25,1.15-2.87-.44-.83-.19-2.04,1.38-1.89.54.05,1.09-.03,1.64-.05,3.52-.08,7.05-.15,10.57-.26.45-.01,1.21.16,1.2-.55,0-.76-.75-.49-1.2-.49-3.37-.02-6.74-.02-10.11-.02Zm0,33.93c-.04-2.2-.74-4.12-2.1-5.74-.91-1.08-2.29-1.71-3.5-.84-1.18.86-1.11,2.33-.34,3.57,1,1.61,2.08,3.18,3.82,4.13.55.3.95,1.14,1.68.79.83-.4.27-1.31.44-1.92Zm.82-19.58c-.51-1.4-.97-3.02-1.69-4.5-.36-.73-1.07-.05-1.2.35-.62,1.87-.27,3.61,1.09,5.06.29.31.62.95,1.25.6.5-.27.59-.8.56-1.51Zm2.05-30.6c.45-.92-.08-1.62-.5-1.85-.47-.25-.92.53-1.1.98-.49,1.26-1.19,2.45-1.28,3.84-.05.77.45,1.41,1.01,1.47.4.04,1.05-.52,1.17-1.24.2-1.14.48-2.26.69-3.2Z"/><path class="cls-5" d="m541.75,410.3c1.22.74.94,1.62.97,2.37.08,1.83.28,3.61.91,5.38.93,2.63-.4,4.88-1.73,6.98-3.7,5.85-8.63,10.63-14.73,13.72-4.33,2.19-8.07,5.67-13.1,6.49-5.88.96-11.69.3-17.51-.6-2.78-.43-5.3-1.4-7.46-3.03-2.61-1.97-5.15-8.7-2.75-12.17,1.32-1.9,3.47-2.12,5.46-2.71.8-.24,2.26.23,2.31-.57.06-1.01.62-2.24-.2-3.21-.42-.5-.79-1.03-.27-1.49.51-.45.85.33,1.29.5,2.6,1,5.24.39,7.84.06,3.24-.41,6.42-1.14,9.72-1.35,1.81-.11,3.79-.81,5.68-1.26,5.48-1.31,10.98-2.55,16.26-4.62,1.37-.54,2.98-.4,4.41-1.13,1.41-.72,2.87-1.22,2.92-3.35Zm-46.73,29.57c1.93.03,2.99-.98,2.65-2.72-.39-1.99-1.3-3.75-2.99-4.98-1.76-1.28-4-.67-4.89,1.3-1.16,2.57,1.93,6.35,5.24,6.4Z"/><path class="cls-5" d="m549.56,355.41c.26,5.22-4.04,6.68-7.42,8.76-1.72,1.06-3.79,1.58-5.72,2.27-.7.25-1.32.52-1.84,1.1-1.75,1.93-4.37,2.2-6.3,1.42-5.5-2.21-11.34-3.72-16.26-7.34-1.22-.9-2.71-1.7-4.16-2.29-3.15-1.27-4.08-3.78-3.82-6.75.4-4.47.15-8.98,1.07-13.41.24-1.17.67-1.26,1.84-1.15,3.15.29,6.39.42,9.34,1.4,4.43,1.48,9,2.25,13.47,3.47,3.04.83,5.92,2.17,9.01,2.75,1.68.31,1.2,1.78,1.05,2.4-.57,2.33,1.53,2.86,2.43,2.68,3.63-.73,5.3,1.49,7,3.89.1.27.21.54.31.81Zm-6.22-1.72c-.56.03-1.66.34-2.26,1.12-1.43,1.84-1.95,4.15-2.69,6.33-.18.52.12,1.44,1.13,1.07,2.78-1.02,5.46-2.19,6.59-5.29.66-1.82-.27-3.18-2.77-3.24Z"/><path class="cls-5" d="m505.86,314.77c1.09.15,2.14.57,3.17,1.19.95.58,2.09.97,2.8-.37.66-1.24,1.72-1.06,2.66-.75,4.07,1.34,8.03,2.87,11.84,4.96,3.18,1.74,6.43,3.6,10.08,4.49,2.66.65,5.02,2.18,6.98,3.97,1.18,1.07,2.76,1.28,3.84,2.58.8.96.83,1.42.3,2.3-1.4,2.34-3.14,4.42-4.92,6.47-.58.67-1.4,1.22-1.73,1.99-1.09,2.55-2.63,2.8-5.15,1.86-4.64-1.72-9.58-2.44-14.35-3.74-3.79-1.02-7.62-1.7-11.47-2.4-1.47-.27-2.24-1.38-3.09-2.32-3.66-4.12-6.45-8.82-6.71-14.39-.18-3.79,2.12-5.33,5.74-5.85Zm2.99,8.89c.2-.88-.23-1.79-.56-2.65-.39-1.05-1.19-1.98-2.42-1.94-1.07.04-2.06.42-2.48,1.71-.47,1.46-.11,2.71.49,4.01.6,1.29,1.23,2.78,2.9,2.43,1.65-.34,2.12-1.85,2.07-3.57Z"/><path class="cls-5" d="m544.43,415.65c1.25.82,1.96.15,2.84-.6,2.61-2.23,4.54-2.05,7.29,0,3.74,2.8,4.53,6.45,3.42,10.68-1.04,3.95-2.97,7.46-5.82,10.4-.89.92-.92,1.95-.81,3.04.43,4.43-.52,5.82-4.45,7.94-3.41,1.84-6.84,3.61-10.67,4.13-4.73.64-9.5,1.67-14.3.27-.61-.18-1.3-.12-1.95-.13-4.93-.08-9.47-1.37-13.53-4.4,1.17.12,2.33.25,3.5.36,3.22.3,6.05-1.13,8.85-2.28,5.02-2.06,10-4.43,14.07-8.03,3.75-3.31,7.93-6.36,10.06-11.23.62-1.42,1.92-2.5,2.43-4.02.71-2.1.79-4.13-.93-6.13Zm5.61,5.6c.42,1.46.3,3.48,1.8,4.24.92.47,2.66-2.79,2.35-4.58-.2-1.18-.35-2.73-1.98-2.64-1.58.09-1.86,1.57-2.17,2.99Z"/><path class="cls-5" d="m517.72,306.81c1-3.78,4.28-4.66,7.35-5.13,7.79-1.18,15.22.15,22.07,4.22.49.29,1.04.5,1.49.84,3.86,2.82,3.87,3.46,2.47,7.34-.77,2.15-.99,4.54-1.71,6.78-.59,1.82-1.47,3.5-2.1,5.3-.51,1.46-1.42,1.91-2.88.92-4.22-2.89-8.95-4.8-13.58-6.88-4.23-1.9-8.42-3.88-12.81-5.41-1.73-.6-.75-2.23-.61-2.95.34-1.7.2-3.35.3-5.02,0,0,0,0,0,0Z"/><path class="cls-5" d="m535.03,382.92c1.12,1.81.77,3.7,1.85,5.05,2.38-2.19,5.26-2.5,8.17-1.72,3.04.82,4.15,3.78,2.78,7.21-1.4,3.5-3.24,6.71-6.68,8.7-.3.17-.83.39-.96.76-1.06,3.15-3.88,3.2-6.36,3.3-4.21.18-8.41.36-12.66-.32-3.07-.49-6.3-.05-9.39-.92-1.83-.52-3.68-.95-5.53-1.42-.35-.09-.83-.12-.82-.56.01-.44.34-.86.82-.86,3.51.04,6.21-2.19,9.29-3.35,3.13-1.18,6.13-2.76,9.03-4.44,3.25-1.88,6.16-4.28,8.83-6.93,1.09-1.08,1.34-2.56,1.63-4.51Zm6.43,6.56c-1.71.01-2.63.85-2.61,2.17.02,1.16,1.85,3.29,2.92,3.18,1.65-.16,2.09-1.65,2.1-2.86,0-1.44-.82-2.63-2.41-2.49Z"/><path class="cls-5" d="m557.14,479.49c-1.67,2.83-4.3,4.46-7.15,5.69-6.56,2.83-13.55,3.7-20.61,3.98-6.21.25-12.23-.87-18.09-2.89-.68-.24-1.38-.42-2.2-1.31,16.92,4.12,33.11,4.69,48.05-5.47Z"/><path class="cls-5" d="m522.88,295.26c-.09.05-.27.25-.39.22-.43-.13-.32-.54-.38-.87-.04-.23,0-.25.21-.19.37.11.64.28.56.83Z"/><path class="cls-5" d="m497.2,352.84c.1-.06-.06.07-.25.13-.05.02-.17-.16-.25-.24.15-.13.29-.28.45-.38.21-.12.29-.04.05.49Z"/></svg>